<svg width="20" height="17" viewBox="0 0 20 17" fill="none" xmlns="http://www.w3.org/2000/svg">
<path d="M18 0.544922H2C0.897 0.544922 0 1.44192 0 2.54492V14.5449C0 15.6479 0.897 16.5449 2 16.5449H18C19.103 16.5449 20 15.6479 20 14.5449V2.54492C20 1.44192 19.103 0.544922 18 0.544922ZM18 2.54492V3.05592L10 9.27892L2 3.05692V2.54492H18ZM2 14.5449V5.58892L9.386 11.3339C9.56111 11.4715 9.77733 11.5462 10 11.5462C10.2227 11.5462 10.4389 11.4715 10.614 11.3339L18 5.58892L18.002 14.5449H2Z" fill="black"/>
</svg>
