<svg width="32" height="32" viewBox="0 0 32 32" fill="none" xmlns="http://www.w3.org/2000/svg">
<path d="M27.52 8.63902C27.52 6.07331 24.2768 4.06348 20.1376 4.06348C15.9984 4.06348 12.7552 6.07331 12.7552 8.63902V9.62544C12.4606 9.60437 12.1679 9.57884 11.8631 9.57991C7.72342 9.57973 4.48022 11.5897 4.48022 14.1554V16.9628C4.48022 19.5276 7.72342 21.5374 11.8626 21.5374C16.0019 21.5374 19.245 19.5276 19.245 16.9618L19.244 15.9858C19.5366 16.0068 19.8339 16.0211 20.1372 16.0211C24.2768 16.0211 27.52 14.0111 27.52 11.4465L27.5161 8.78486C27.519 8.73647 27.52 8.68808 27.52 8.63951L27.52 8.63902ZM20.1376 5.03651C23.5566 5.03651 26.4526 6.63399 26.545 8.54581L26.5432 8.75581C26.4291 10.6571 23.5421 12.2403 20.1377 12.2403C16.6636 12.2403 13.7281 10.5917 13.7281 8.63887C13.7283 6.68619 16.6634 5.03654 20.1377 5.03654L20.1376 5.03651ZM11.8624 20.5638C8.38834 20.5638 5.45284 18.9142 5.45284 16.9624V16.4586C6.7157 17.827 9.08749 18.7295 11.8624 18.7295C14.6373 18.7295 17.009 17.8269 18.2707 16.4595L18.2717 16.9624C18.2717 18.9142 15.3366 20.5638 11.8621 20.5638H11.8624ZM11.8624 17.7565C8.38834 17.7565 5.45284 16.107 5.45284 14.1551C5.45284 12.2022 8.3882 10.5526 11.8624 10.5526C12.1665 10.5526 12.4599 10.581 12.7546 10.6058V11.4458C12.7546 13.4519 14.7418 15.1129 17.5857 15.744C16.5194 16.9241 14.3295 17.7565 11.8623 17.7565L11.8624 17.7565ZM20.1376 15.0472C16.6635 15.0472 13.728 13.3988 13.728 11.4458V10.9422C14.9911 12.3106 17.3631 13.2131 20.1376 13.2131C22.9125 13.2131 25.2842 12.3104 26.5459 10.9431L26.5469 11.4456C26.5469 13.3988 23.6114 15.0472 20.1373 15.0472H20.1376Z" fill="#0079FF"/>
</svg>
