<svg width="20" height="20" viewBox="0 0 20 20" fill="current" xmlns="http://www.w3.org/2000/svg">
<path d="M14.1676 10.9167C14.8551 10.9167 15.4601 10.5408 15.7717 9.9725L19.0534 4.02333C19.3926 3.41833 18.9526 2.66666 18.2559 2.66666H4.68924L3.82758 0.833328H0.830078V2.66666H2.66341L5.96341 9.62416L4.72591 11.8608C4.05674 13.0892 4.93674 14.5833 6.33008 14.5833H17.3301V12.75H6.33008L7.33841 10.9167H14.1676ZM5.56008 4.49999H16.6976L14.1676 9.08333H7.73258L5.56008 4.49999ZM6.33008 15.5C5.32174 15.5 4.50591 16.325 4.50591 17.3333C4.50591 18.3417 5.32174 19.1667 6.33008 19.1667C7.33841 19.1667 8.16341 18.3417 8.16341 17.3333C8.16341 16.325 7.33841 15.5 6.33008 15.5ZM15.4967 15.5C14.4884 15.5 13.6726 16.325 13.6726 17.3333C13.6726 18.3417 14.4884 19.1667 15.4967 19.1667C16.5051 19.1667 17.3301 18.3417 17.3301 17.3333C17.3301 16.325 16.5051 15.5 15.4967 15.5Z" />
</svg>
