<svg width="17" height="16" viewBox="0 0 17 16" fill="none" xmlns="http://www.w3.org/2000/svg">
<path d="M16.6992 1.97333H3.52589V1.76C3.45477 1.26222 3.23255 0.844444 2.85922 0.506666C2.48589 0.168888 2.03255 0 1.49922 0H0.699219V1.33333H1.49922C1.677 1.33333 1.82811 1.38667 1.95255 1.49333C2.077 1.6 2.157 1.74222 2.19255 1.92L3.25922 10.88C3.29477 11.4133 3.49922 11.84 3.87255 12.16C4.24589 12.48 4.69922 12.6578 5.23255 12.6933H14.0326V11.3067H5.23255C5.05477 11.3067 4.90366 11.2533 4.77922 11.1467C4.65477 11.04 4.57477 10.8978 4.53922 10.72L4.48589 9.97333H15.2592L16.6992 1.97333ZM14.1392 8.64H4.32589L3.68589 3.30667H15.0992L14.1392 8.64ZM4.05922 14.6667C4.02366 15.0222 4.13922 15.3333 4.40589 15.6C4.67255 15.8667 4.99255 16 5.36589 16C5.73922 16 6.05033 15.8667 6.29922 15.6C6.54811 15.3333 6.68144 15.0222 6.69922 14.6667C6.717 14.3111 6.59255 14 6.32589 13.7333C6.05922 13.4667 5.73922 13.3333 5.36589 13.3333C4.99255 13.3333 4.68144 13.4667 4.43255 13.7333C4.18366 14 4.05922 14.3111 4.05922 14.6667ZM10.7259 14.6667C10.6903 15.0222 10.8059 15.3333 11.0726 15.6C11.3392 15.8667 11.6592 16 12.0326 16C12.4059 16 12.717 15.8667 12.9659 15.6C13.2148 15.3333 13.3481 15.0222 13.3659 14.6667C13.3837 14.3111 13.2592 14 12.9926 13.7333C12.7259 13.4667 12.4059 13.3333 12.0326 13.3333C11.6592 13.3333 11.3481 13.4667 11.0992 13.7333C10.8503 14 10.7259 14.3111 10.7259 14.6667Z" fill="white"/>
</svg>
