<?xml version="1.0" encoding="iso-8859-1"?>
<!-- Uploaded to: SVG Repo, www.svgrepo.com, Generator: SVG Repo Mixer Tools -->
<svg height="800px" width="800px" version="1.1" id="Layer_1" xmlns="http://www.w3.org/2000/svg" xmlns:xlink="http://www.w3.org/1999/xlink" 
	 viewBox="0 0 512 512" xml:space="preserve">
<polygon points="138.424,156 99.856,41.872 0,41.872 0,11.368 121.752,11.368 167.312,146.232 "/>
<polygon style="fill:#FFD67F;" points="64.448,130.384 487.944,130.384 407.224,356.872 134.968,356.872 "/>
<circle cx="359.704" cy="441.904" r="58.728"/>
<circle cx="182.576" cy="441.904" r="58.728"/>
<path style="fill:#FF583E;" d="M470.44,319.832H219.552c-22.856,0-41.56-18.704-41.56-41.56v-68.576
	c0-22.856,18.704-41.56,41.56-41.56H470.44c22.856,0,41.56,18.704,41.56,41.56v68.576C512,301.128,493.296,319.832,470.44,319.832z"
	/>
<g>
	<path style="fill:#FFFFFF;" d="M239.688,219.072l4.144,21.24c1.056,5.408,2.12,11.152,2.976,17.096h0.208
		c1.064-5.944,2.552-11.888,3.824-16.992l5.528-21.344h12.744l5.208,20.704c1.376,5.84,2.76,11.688,3.824,17.632h0.208
		c0.752-5.944,1.816-11.784,2.984-17.736l4.456-20.6h15.816L285.68,271h-15.184l-4.888-18.264
		c-1.272-5.096-2.224-9.768-3.288-16.136h-0.24c-0.952,6.464-2.008,11.256-3.392,16.136L253.48,271h-15.184l-15.08-51.928
		L239.688,219.072L239.688,219.072z"/>
	<path style="fill:#FFFFFF;" d="M322.288,219.072l4.144,21.24c1.056,5.408,2.12,11.152,2.976,17.096h0.208
		c1.064-5.944,2.552-11.888,3.824-16.992l5.528-21.344h12.744l5.208,20.704c1.376,5.84,2.76,11.688,3.824,17.632h0.208
		c0.752-5.944,1.816-11.784,2.984-17.736l4.456-20.6h15.816L368.28,271h-15.184l-4.888-18.264
		c-1.272-5.096-2.224-9.768-3.288-16.136h-0.216c-0.952,6.464-2.008,11.256-3.392,16.136L336.104,271H320.92l-15.08-51.928
		L322.288,219.072L322.288,219.072z"/>
	<path style="fill:#FFFFFF;" d="M404.896,219.072l4.144,21.24c1.056,5.408,2.12,11.152,2.976,17.096h0.208
		c1.064-5.944,2.552-11.888,3.824-16.992l5.528-21.344h12.744l5.208,20.704c1.376,5.84,2.76,11.688,3.824,17.632h0.208
		c0.752-5.944,1.816-11.784,2.984-17.736l4.456-20.6h15.816L450.888,271h-15.184l-4.888-18.264
		c-1.272-5.096-2.224-9.768-3.288-16.136h-0.216c-0.952,6.464-2.008,11.256-3.392,16.136L418.712,271h-15.184l-15.08-51.928
		L404.896,219.072L404.896,219.072z"/>
</g>
</svg>