<svg width="37" height="37" viewBox="0 0 37 37" fill="none" xmlns="http://www.w3.org/2000/svg">
<path d="M29.9136 12.4937H6.88623C6.87568 12.4937 6.86865 12.5007 6.86865 12.5112V15.7175C6.86865 17.8198 8.59131 19.5249 10.7112 19.5249C12.1421 19.5249 13.3901 18.7515 14.0546 17.6019C14.1565 17.4226 14.3499 17.3101 14.5573 17.3101C14.7647 17.3101 14.9546 17.4226 15.0601 17.6019C15.721 18.7515 16.969 19.5249 18.3999 19.5249C19.8343 19.5249 21.0858 18.7479 21.7433 17.5948C21.8452 17.419 22.0315 17.3101 22.2319 17.3101H22.253C22.4569 17.3101 22.6397 17.419 22.7417 17.5948C23.4026 18.7479 24.6542 19.5249 26.0886 19.5249C28.2085 19.5249 29.9312 17.8198 29.9312 15.7175V12.5112C29.9312 12.5007 29.9241 12.4937 29.9136 12.4937Z" fill="#032A45" fill-opacity="0.15"/>
<path d="M31.4077 9.96592V5.4624C31.4077 4.84014 30.905 4.3374 30.2827 4.3374H6.51711C5.89485 4.3374 5.39211 4.84014 5.39211 5.4624V9.96592C4.805 10.0011 4.33742 10.4897 4.33742 11.0874V15.7175C4.33517 16.5684 4.50747 17.4108 4.84367 18.1925C4.99485 18.5511 5.18117 18.8886 5.39211 19.2085V31.3374C5.39211 31.9562 5.89485 32.4624 6.51711 32.4624H30.2827C30.905 32.4624 31.4077 31.9597 31.4077 31.3374V19.2085C31.622 18.8878 31.8056 18.5476 31.9562 18.1925C32.2902 17.4085 32.4624 16.5753 32.4624 15.7175V11.0874C32.4624 10.4897 31.9948 10.0011 31.4077 9.96592ZM7.92336 6.86865H28.8765V9.9624H7.92336V6.86865ZM20.6499 29.9347H16.1499V26.2749H20.6499V29.9347ZM28.8905 29.9347H22.8999V25.1499C22.8999 24.5276 22.3972 24.0249 21.7749 24.0249H15.0249C14.4027 24.0249 13.8999 24.5276 13.8999 25.1499V29.9347H7.92336V21.4198C8.02531 21.469 8.13078 21.5183 8.23977 21.5604C9.02375 21.8909 9.85696 22.0562 10.7148 22.0562C11.5726 22.0562 12.4023 21.8909 13.1898 21.5604C13.6749 21.3565 14.132 21.0964 14.5503 20.7835C14.5573 20.78 14.5644 20.78 14.5714 20.7835C14.9911 21.0977 15.4481 21.3587 15.932 21.5604C16.7159 21.8909 17.5491 22.0562 18.407 22.0562C19.2648 22.0562 20.0945 21.8909 20.882 21.5604C21.3671 21.3565 21.8241 21.0964 22.2425 20.7835C22.2495 20.78 22.2566 20.78 22.2636 20.7835C22.6833 21.0977 23.1403 21.3587 23.6241 21.5604C24.4081 21.8909 25.2413 22.0562 26.0991 22.0562C26.957 22.0562 27.7866 21.8909 28.5741 21.5604C28.6796 21.5147 28.7851 21.469 28.8905 21.4198V29.9347ZM29.9312 15.7175C29.9312 17.8198 28.2085 19.5249 26.0886 19.5249C24.6542 19.5249 23.4027 18.7479 22.7417 17.5948C22.6398 17.419 22.457 17.3101 22.253 17.3101H22.232C22.0316 17.3101 21.8452 17.419 21.7433 17.5948C21.406 18.183 20.919 18.6715 20.3317 19.0105C19.7445 19.3495 19.078 19.527 18.3999 19.5249C16.9691 19.5249 15.721 18.7515 15.0601 17.6019C14.9546 17.4226 14.7648 17.3101 14.5573 17.3101C14.3499 17.3101 14.1566 17.4226 14.0546 17.6019C13.7154 18.1878 13.2277 18.6741 12.6408 19.0117C12.0539 19.3493 11.3883 19.5263 10.7113 19.5249C8.59133 19.5249 6.86867 17.8198 6.86867 15.7175V12.5112C6.86867 12.5007 6.87571 12.4937 6.88625 12.4937H29.9136C29.9241 12.4937 29.9312 12.5007 29.9312 12.5112V15.7175Z" fill="#167AC0"/>
</svg>
