<svg width="19" height="18" viewBox="0 0 19 18" fill="none" xmlns="http://www.w3.org/2000/svg">
<g opacity="0.6" clip-path="url(#clip0_3628_8068)">
<path d="M15.8192 9.96004L14.7392 11.04L16.4792 12.72H16.1792C14.9792 12.72 13.8992 12.48 12.9392 12C12.1792 11.6 11.3992 10.98 10.5992 10.14L9.57922 11.28C10.4192 12.2 11.4092 12.93 12.5492 13.47C13.6892 14.01 14.8992 14.28 16.1792 14.28H16.4792L14.7392 15.96L15.8192 17.04L18.2792 14.58C18.5592 14.26 18.6992 13.9 18.6992 13.5C18.6992 13.1 18.5592 12.74 18.2792 12.42L15.8192 9.96004ZM16.1792 5.22004H16.4792L14.7392 6.96004L15.8192 8.04004L18.2792 5.58004C18.5592 5.26004 18.6992 4.90004 18.6992 4.50004C18.6992 4.10004 18.5592 3.74004 18.2792 3.42004L15.8192 0.960039L14.7392 2.04004L16.4792 3.72004H16.1792C15.0192 3.72004 13.9392 3.92004 12.9392 4.32004C12.0992 4.68004 11.2992 5.20004 10.5392 5.88004C9.97922 6.36004 9.31922 7.02004 8.55922 7.86004C7.43922 6.58004 6.37922 5.64004 5.37922 5.04004C3.97922 4.20004 2.41922 3.78004 0.699219 3.78004V5.22004C2.17922 5.22004 3.51922 5.60004 4.71922 6.36004C5.55922 6.88004 6.51922 7.76004 7.59922 9.00004C6.51922 10.24 5.55922 11.12 4.71922 11.64C3.51922 12.36 2.17922 12.74 0.699219 12.78V14.22C2.01922 14.22 3.23922 13.98 4.35922 13.5C5.31922 13.1 6.23922 12.5 7.11922 11.7C7.63922 11.22 8.33922 10.46 9.21922 9.42004C10.0192 8.46004 10.6392 7.78004 11.0792 7.38004C11.7992 6.70004 12.5392 6.20004 13.2992 5.88004C14.1792 5.48004 15.1392 5.28004 16.1792 5.28004V5.22004Z" fill="#333333"/>
</g>
<defs>
<clipPath id="clip0_3628_8068">
<rect width="18" height="18" fill="white" transform="matrix(1 0 0 -1 0.699219 18)"/>
</clipPath>
</defs>
</svg>
