<svg width="21" height="22" viewBox="0 0 21 22" fill="none" xmlns="http://www.w3.org/2000/svg">
<path d="M2.27093 14.5075C1.46262 15.1292 1 15.8511 1 16.621C1 18.9555 5.2533 20.8481 10.5 20.8481C15.7467 20.8481 20 18.9555 20 16.621C20 15.8511 19.5373 15.1292 18.7291 14.5075M16.8333 8.4018C16.8333 12.0333 13.9978 14.9771 10.5 16.621C7.0022 14.9771 4.16667 12.0333 4.16667 8.4018C4.16667 4.77031 7.0022 1.82642 10.5 1.82642C13.9978 1.82642 16.8333 4.77031 16.8333 8.4018Z" stroke="#ffffff" stroke-width="2" stroke-linecap="round" stroke-linejoin="round"/>
<path d="M10.5002 10.7032C11.7828 10.7032 12.8224 9.66236 12.8224 8.37834C12.8224 7.09435 11.7828 6.05347 10.5002 6.05347C9.21764 6.05347 8.17798 7.09435 8.17798 8.37834C8.17798 9.66236 9.21764 10.7032 10.5002 10.7032Z" stroke="#ffffff" stroke-width="2" stroke-linecap="round" stroke-linejoin="round"/>
</svg>
