<svg width="18" height="18" viewBox="0 0 18 18" fill="none" xmlns="http://www.w3.org/2000/svg">
<g opacity="0.6" clip-path="url(#clip0_3628_8065)">
<path d="M13.1452 0.659962C12.2652 0.699961 11.4552 0.93996 10.7152 1.37996C9.97522 1.81996 9.40522 2.41996 9.00522 3.17996C8.60522 2.41996 8.03522 1.81996 7.29522 1.37996C6.55522 0.93996 5.73522 0.719961 4.83522 0.719961C3.93522 0.719961 3.10522 0.969961 2.34522 1.46996C1.58522 1.96996 0.995217 2.61996 0.575217 3.41996C0.155217 4.21996 -0.0347826 5.07996 0.00521739 5.99996C0.00521739 7.47996 0.725217 9.17996 2.16522 11.1C3.20522 12.46 4.54522 13.86 6.18522 15.3C7.06522 16.02 7.86522 16.64 8.58522 17.16L9.00522 17.46L9.42522 17.16C10.1452 16.68 10.9452 16.06 11.8252 15.3C13.4652 13.86 14.8052 12.46 15.8452 11.1C17.2852 9.17996 18.0052 7.47996 18.0052 5.99996C18.0452 5.07996 17.8552 4.21996 17.4352 3.41996C17.0152 2.61996 16.4252 1.96996 15.6652 1.46996C14.9052 0.969961 14.0652 0.699961 13.1452 0.659962ZM9.00522 15.66C7.24522 14.34 5.68522 12.92 4.32522 11.4C2.44522 9.27996 1.50522 7.47996 1.50522 5.99996C1.46522 4.99996 1.77522 4.12996 2.43522 3.38996C3.09522 2.64996 3.90522 2.23996 4.86522 2.15996C5.86522 2.23996 6.69522 2.64996 7.35522 3.38996C8.01522 4.12996 8.32522 4.99996 8.28522 5.99996H9.78522C9.70522 4.99996 9.99522 4.12996 10.6552 3.38996C11.3152 2.64996 12.1452 2.23996 13.1452 2.15996C14.1052 2.23996 14.9152 2.64996 15.5752 3.38996C16.2352 4.12996 16.5452 4.99996 16.5052 5.99996C16.5052 7.47996 15.5652 9.27996 13.6852 11.4C12.3252 12.92 10.7652 14.34 9.00522 15.66Z" fill="#333333"/>
</g>
<defs>
<clipPath id="clip0_3628_8065">
<rect width="18" height="18" fill="white" transform="matrix(1 0 0 -1 0 18)"/>
</clipPath>
</defs>
</svg>
