<svg width="24" height="25" viewBox="0 0 24 25" fill="none" xmlns="http://www.w3.org/2000/svg">
<path d="M20 4.54492H4C2.897 4.54492 2 5.44192 2 6.54492V18.5449C2 19.6479 2.897 20.5449 4 20.5449H20C21.103 20.5449 22 19.6479 22 18.5449V6.54492C22 5.44192 21.103 4.54492 20 4.54492ZM20 6.54492V7.05592L12 13.2789L4 7.05692V6.54492H20ZM4 18.5449V9.58892L11.386 15.3339C11.5611 15.4715 11.7773 15.5462 12 15.5462C12.2227 15.5462 12.4389 15.4715 12.614 15.3339L20 9.58892L20.002 18.5449H4Z" fill="black"/>
</svg>
