<svg width="23" height="24" viewBox="0 0 23 24" fill="none" xmlns="http://www.w3.org/2000/svg">
<path d="M0 11.5729C0 16.5946 3.21999 20.8496 7.66665 22.4212V0.724609C3.21999 2.29627 0 6.55126 0 11.5729Z" fill="#83BF4F"/>
<path d="M23.0001 11.5729C23.0001 6.55126 19.8185 2.29627 15.3335 0.724609V22.4212C19.8185 20.8496 23.0001 16.5946 23.0001 11.5729Z" fill="#83BF4F"/>
<path d="M7.6665 22.4215C8.85483 22.8432 10.1582 23.0732 11.4998 23.0732C12.8415 23.0732 14.1448 22.8432 15.3332 22.4215V0.724907C14.1448 0.303242 12.8415 0.0732422 11.4998 0.0732422C10.1582 0.0732422 8.85483 0.303242 7.6665 0.724907V22.4215Z" fill="#F9F9F9"/>
</svg>
