<svg width="80" height="80" viewBox="0 0 80 80" fill="none" xmlns="http://www.w3.org/2000/svg">
<circle cx="40" cy="40" r="40" fill="#DB4444" fill-opacity="0.46"/>
<circle cx="39.5" cy="40.5" r="26.5" fill="#8B0000" fill-opacity="0.75"/>
<path fill-rule="evenodd" clip-rule="evenodd" d="M44.9082 31.1312C42.7365 31.1312 40.969 32.8856 40.969 35.0584C40.969 37.2311 42.7365 38.9855 44.9082 38.9855C47.0799 38.9855 48.8474 37.2311 48.8474 35.0584C48.8474 32.8856 47.0799 31.1312 44.9082 31.1312ZM42.969 35.0584C42.969 33.9979 43.8333 33.1312 44.9082 33.1312C45.983 33.1312 46.8474 33.9979 46.8474 35.0584C46.8474 36.1189 45.983 36.9855 44.9082 36.9855C43.8333 36.9855 42.969 36.1189 42.969 35.0584Z" fill="white"/>
<path fill-rule="evenodd" clip-rule="evenodd" d="M36.707 51.8381C37.151 51.2191 37.2939 50.5908 37.2833 50.0314C37.8062 50.1852 38.3235 50.2047 38.8191 50.1107C39.8436 49.9163 40.6018 49.2687 41.004 48.7345L41.011 48.7252L41.0178 48.7158C41.718 47.7394 41.7166 46.7394 41.5452 46.0222C41.4611 45.6708 41.3364 45.3817 41.233 45.1798C41.1807 45.0778 41.1324 44.995 41.0947 44.9344C41.0847 44.9183 41.0754 44.9037 41.0669 44.8906C40.9486 44.6698 40.8151 44.4963 40.7029 44.3653L40.7149 44.3532L41.3337 43.7369C41.8426 43.9802 42.3945 44.1335 42.878 44.2336C43.659 44.3952 44.4231 44.4495 44.9079 44.4495C50.1097 44.4495 54.3336 40.2487 54.3336 35.0582C54.3336 29.8677 50.1097 25.667 44.9079 25.667C39.7061 25.667 35.4823 29.8677 35.4823 35.0582C35.4823 36.281 35.7606 37.3282 36.0348 38.0657C36.1047 38.2534 36.1747 38.4225 36.2408 38.5709L26.5671 48.205C26.2252 48.5455 25.8242 49.1376 25.703 49.8792C25.5715 50.6835 25.7874 51.5776 26.5671 52.3541L27.7428 53.525C27.7609 53.5431 27.7798 53.5604 27.7992 53.577C28.1388 53.8669 28.7092 54.202 29.3946 54.3033C30.1298 54.412 30.9807 54.2428 31.7014 53.525L32.4568 52.7727C33.1673 53.1803 33.9184 53.273 34.6129 53.14C35.5136 52.9675 36.2628 52.4284 36.6932 51.8569L36.7002 51.8476L36.707 51.8381ZM37.4823 35.0582C37.4823 30.98 40.803 27.667 44.9079 27.667C49.0129 27.667 52.3336 30.98 52.3336 35.0582C52.3336 39.1365 49.0129 42.4495 44.9079 42.4495C44.5437 42.4495 43.9165 42.4062 43.2834 42.2751C42.6208 42.1379 42.1007 41.9342 41.8236 41.7043C41.4268 41.3749 40.8447 41.4013 40.4793 41.7652L39.3036 42.9361C39.0346 43.204 38.776 43.5077 38.6396 43.8581C38.4668 44.3018 38.5219 44.7287 38.7195 45.0831C38.8367 45.2932 39.0255 45.494 39.1041 45.5776L39.1304 45.6059C39.2234 45.7085 39.2743 45.7756 39.3115 45.8496L39.3468 45.9199L39.387 45.976L39.3961 45.9902C39.4081 46.0096 39.4287 46.0443 39.4529 46.0917C39.5026 46.1885 39.5615 46.3264 39.6 46.4872C39.6728 46.792 39.6721 47.1544 39.3995 47.5404C39.212 47.7849 38.8569 48.0679 38.4463 48.1457C38.1029 48.2109 37.5431 48.1685 36.796 47.4244C36.4058 47.0358 35.7748 47.0358 35.3847 47.4244L34.9928 47.8147C34.6236 48.1823 34.5989 48.7713 34.9344 49.1684C34.9363 49.1707 34.9414 49.1772 34.9491 49.1874C34.9652 49.2087 34.9915 49.2451 35.0227 49.2943C35.0868 49.3951 35.162 49.5347 35.2155 49.6944C35.3162 49.9954 35.3321 50.3169 35.0889 50.6625C34.9289 50.8695 34.6044 51.1053 34.2367 51.1757C33.9242 51.2355 33.5241 51.1912 33.073 50.7419C32.6828 50.3533 32.0519 50.3533 31.6617 50.7419L30.2901 52.1079C30.0702 52.3269 29.8761 52.3528 29.6871 52.3248C29.4634 52.2918 29.2448 52.1727 29.1214 52.0753L27.9785 50.937C27.6609 50.6208 27.6482 50.3765 27.6768 50.2018C27.7156 49.9644 27.8631 49.7369 27.9785 49.6221L38.1708 39.4714C38.4999 39.1436 38.5583 38.6317 38.3114 38.2382L38.3084 38.2334C38.3048 38.2273 38.2979 38.2157 38.2881 38.1986C38.2686 38.1644 38.2378 38.1089 38.1995 38.0338C38.1227 37.8834 38.0166 37.6567 37.9094 37.3685C37.6938 36.7888 37.4823 35.9821 37.4823 35.0582ZM34.9344 49.1684C34.9362 49.1706 34.9381 49.1728 34.9399 49.1749L34.9384 49.1731L34.9344 49.1684Z" fill="white"/>
</svg>
