<svg width="32" height="32" viewBox="0 0 32 32" fill="none" xmlns="http://www.w3.org/2000/svg">
<path fill-rule="evenodd" clip-rule="evenodd" d="M17.2594 6.71133C17.5814 6.38776 17.781 5.94242 17.781 5.45044C17.781 4.46685 16.9837 3.66955 16.0001 3.66955C15.0165 3.66955 14.2192 4.46685 14.2192 5.45044C14.2192 5.94242 14.4189 6.38777 14.7408 6.70973C15.4344 7.40724 16.5687 7.40221 17.2596 6.71116L17.2594 6.71133ZM17.2594 18.6062C17.5814 18.2826 17.781 17.8373 17.781 17.3453C17.781 16.3617 16.9837 15.5646 16.0001 15.5646C15.0165 15.5646 14.2192 16.3616 14.2192 17.3453C14.2192 17.8373 14.4189 18.2826 14.7408 18.605C15.4344 19.3025 16.5687 19.2971 17.2596 18.6062L17.2594 18.6062ZM18.0337 18.7767C19.1521 19.0053 19.9737 20.0005 19.9737 21.1499V22.2817C19.9737 22.4764 19.8159 22.6346 19.6212 22.6346H12.3792C12.1845 22.6346 12.0263 22.4764 12.0263 22.2817V21.1499C12.0263 20.0003 12.8481 19.0049 13.9672 18.7767C13.6815 18.3721 13.5133 17.8782 13.5133 17.3453C13.5133 15.9723 14.6268 14.8589 15.9999 14.8589C17.373 14.8589 18.4865 15.9722 18.4865 17.3453C18.4865 17.878 18.3187 18.3719 18.0337 18.7767H18.0337ZM14.6503 19.4337C13.6078 19.4337 12.7321 20.0294 12.7321 21.1499V21.9289H19.2683V21.1499C19.2683 20.029 18.3924 19.4337 17.3497 19.4337C16.5351 19.9598 15.4672 19.9694 14.6503 19.4337H14.6503ZM9.3822 13.926C9.70417 13.6025 9.9038 13.1568 9.9038 12.6651C9.9038 11.6816 9.1065 10.8842 8.12291 10.8842C7.13932 10.8842 6.34202 11.6816 6.34202 12.6651C6.34202 13.1568 6.54166 13.6025 6.86362 13.9244C7.5572 14.6219 8.69146 14.6166 9.38239 13.9259L9.3822 13.926ZM25.1363 13.926C25.4586 13.6025 25.6582 13.1568 25.6582 12.6651C25.6582 11.6816 24.8606 10.8842 23.8773 10.8842C22.8937 10.8842 22.0964 11.6816 22.0964 12.6651C22.0964 13.1568 22.2957 13.6025 22.618 13.9244C23.3114 14.6219 24.4456 14.6166 25.1364 13.9259L25.1363 13.926ZM25.9106 14.0962C27.029 14.3248 27.8509 15.32 27.8509 16.4698V17.6012C27.8509 17.7962 27.6927 17.9541 27.4981 17.9541H20.2565C20.0615 17.9541 19.9036 17.7962 19.9036 17.6012V16.4698C19.9036 15.32 20.7254 14.3244 21.8441 14.0962C21.5584 13.6916 21.3905 13.1978 21.3905 12.6651C21.3905 11.2917 22.5039 10.1785 23.8772 10.1785C25.2502 10.1785 26.3636 11.2919 26.3636 12.6651C26.3636 13.1976 26.1961 13.6917 25.9108 14.0962H25.9106ZM22.5273 14.7535C21.4848 14.7535 20.6091 15.3489 20.6091 16.4698V17.2483H27.1449V16.4698C27.1449 15.3489 26.269 14.7535 25.2267 14.7535C24.4121 15.2794 23.3442 15.2893 22.5272 14.7535H22.5273ZM10.1561 14.0962C11.2749 14.3248 12.0965 15.32 12.0965 16.4698V17.6012C12.0965 17.7962 11.9386 17.9541 11.7436 17.9541H4.50203C4.30739 17.9541 4.14917 17.7962 4.14917 17.6012V16.4698C4.14917 15.32 4.97098 14.3244 6.09006 14.0962C5.80399 13.6916 5.63613 13.1978 5.63613 12.6651C5.63613 11.2917 6.74969 10.1785 8.12276 10.1785C9.49584 10.1785 10.6094 11.2919 10.6094 12.6651C10.6094 13.1976 10.4415 13.6917 10.1562 14.0962H10.1561ZM6.77292 14.7535C5.73041 14.7535 4.85471 15.3489 4.85471 16.4698V17.2483H11.3905V16.4698C11.3905 15.3489 10.5148 14.7535 9.47226 14.7535C8.65763 15.2794 7.58975 15.2893 6.77279 14.7535H6.77292ZM20.0388 9.15034C20.7471 9.73141 21.3254 10.465 21.7259 11.2893C21.543 11.5744 21.415 11.8989 21.3577 12.2466C21.0821 11.4353 20.6275 10.7064 20.0412 10.1076V9.2553C20.0412 9.2203 20.0403 9.18512 20.0387 9.15029L20.0388 9.15034ZM20.9839 18.0217C20.5334 18.5886 19.9891 19.0758 19.3753 19.4609C19.2048 19.2765 19.0059 19.1173 18.7857 18.9907C19.2318 18.7379 19.6402 18.4265 20 18.0665L20.0816 17.9836C20.2382 18.055 20.7878 18.0216 20.9839 18.0216L20.9839 18.0217ZM12.6251 19.4609C12.011 19.0757 11.4667 18.589 11.0162 18.0217C11.2121 18.0217 11.7624 18.0549 11.9187 17.9836C12.3112 18.3845 12.7238 18.7133 13.214 18.9911C12.9938 19.1177 12.7956 19.2765 12.6251 19.4609ZM10.2742 11.289C10.6751 10.4635 11.2529 9.73205 11.9613 9.14974C11.9474 9.46117 11.9592 9.79349 11.9592 10.1072C11.3726 10.706 10.9178 11.4345 10.6424 12.2465C10.5849 11.8985 10.457 11.5744 10.2742 11.289H10.2742ZM18.0337 6.88172C19.1521 7.11029 19.9737 8.10512 19.9737 9.25493V10.3867C19.9737 10.5814 19.8159 10.7396 19.6212 10.7396H12.3792C12.1845 10.7396 12.0263 10.5814 12.0263 10.3867V9.25493C12.0263 8.10512 12.8481 7.10992 13.9672 6.88172C13.6815 6.47707 13.5133 5.98316 13.5133 5.45031C13.5133 4.07728 14.6268 2.96387 15.9999 2.96387C17.373 2.96387 18.4865 4.07724 18.4865 5.45031C18.4865 5.98279 18.3187 6.47692 18.0337 6.88172H18.0337ZM14.6503 7.53868C13.6078 7.53868 12.7321 8.13438 12.7321 9.25493V10.0339H19.2683V9.25493C19.2683 8.13402 18.3924 7.53868 17.3497 7.53868C16.5351 8.06476 15.4672 8.0744 14.6503 7.53868H14.6503Z" fill="#F72C00"/>
</svg>
