<svg width="20" height="21" viewBox="0 0 20 21" fill="none" xmlns="http://www.w3.org/2000/svg">
<path fill-rule="evenodd" clip-rule="evenodd" d="M14.5811 14.0085C15.7013 12.6082 16.3711 10.8319 16.3711 8.89916C16.3711 4.37841 12.7063 0.713623 8.18554 0.713623C3.66479 0.713623 0 4.37841 0 8.89916C0 13.4199 3.66479 17.0847 8.18554 17.0847C10.1183 17.0847 11.8945 16.4149 13.2949 15.2947L18.4473 20.4472C18.8025 20.8024 19.3784 20.8024 19.7336 20.4472C20.0888 20.0921 20.0888 19.5161 19.7336 19.161L14.5811 14.0085ZM8.18554 15.2748C4.66436 15.2748 1.80988 12.4203 1.80988 8.89916C1.80988 5.37798 4.66436 2.5235 8.18554 2.5235C11.7067 2.5235 14.5612 5.37798 14.5612 8.89916C14.5612 12.4203 11.7067 15.2748 8.18554 15.2748Z" fill="white"/>
</svg>
