<svg width="37" height="37" viewBox="0 0 37 37" fill="none" xmlns="http://www.w3.org/2000/svg">
<path opacity="0.3" d="M23.9219 16.8999L28.0619 9.3999H9.83691L13.3919 16.8999H23.9219Z" fill="#C68C57"/>
<path d="M23.9217 19.8999C25.0467 19.8999 26.0367 19.2849 26.5467 18.3549L31.9167 8.6199C32.0431 8.39254 32.108 8.13611 32.1048 7.87599C32.1017 7.61586 32.0307 7.36106 31.8989 7.13679C31.7671 6.91253 31.579 6.72657 31.3532 6.59733C31.1274 6.46808 30.8718 6.40003 30.6117 6.3999H8.41168L7.00168 3.3999H2.09668V6.3999H5.09668L10.4967 17.7849L8.47168 21.4449C7.37668 23.4549 8.81668 25.8999 11.0967 25.8999H29.0967V22.8999H11.0967L12.7467 19.8999H23.9217ZM9.83668 9.3999H28.0617L23.9217 16.8999H13.3917L9.83668 9.3999ZM11.0967 27.3999C9.44668 27.3999 8.11168 28.7499 8.11168 30.3999C8.11168 32.0499 9.44668 33.3999 11.0967 33.3999C12.7467 33.3999 14.0967 32.0499 14.0967 30.3999C14.0967 28.7499 12.7467 27.3999 11.0967 27.3999ZM26.0967 27.3999C24.4467 27.3999 23.1117 28.7499 23.1117 30.3999C23.1117 32.0499 24.4467 33.3999 26.0967 33.3999C27.7467 33.3999 29.0967 32.0499 29.0967 30.3999C29.0967 28.7499 27.7467 27.3999 26.0967 27.3999Z" fill="#C68C57"/>
</svg>
