<svg width="49" height="49" viewBox="0 0 49 49" fill="none" xmlns="http://www.w3.org/2000/svg">
<g clip-path="url(#clip0_1470_1604)">
<mask id="mask0_1470_1604" style="mask-type:luminance" maskUnits="userSpaceOnUse" x="6" y="15" width="39" height="27">
<path d="M13.5167 20.22L12.4838 18.221C12.2099 17.6909 11.7366 17.2913 11.168 17.1101C10.5995 16.9289 9.9822 16.9811 9.45205 17.255C8.9219 17.5289 8.52229 18.0022 8.34111 18.5708C8.15994 19.1394 8.21205 19.7566 8.48598 20.2868L10.896 24.9509" stroke="white" stroke-width="4" stroke-linecap="round" stroke-linejoin="round"/>
<path d="M11.6515 31.3143C9.36987 26.8987 11.1001 21.4688 15.5157 19.1872C19.9313 16.9056 25.3613 18.6358 27.6429 23.0514L31.7743 31.0471L15.7829 39.31L11.6515 31.3143ZM27.6429 23.0514L38.3038 17.5428L42.4352 25.5385L31.7743 31.0471L27.6429 23.0514Z" fill="#555555"/>
<path d="M27.6429 23.0514C25.3613 18.6358 19.9313 16.9056 15.5157 19.1872C11.1001 21.4688 9.36987 26.8987 11.6515 31.3143L15.7829 39.31L31.7743 31.0471M27.6429 23.0514L31.7743 31.0471M27.6429 23.0514L38.3038 17.5428L42.4352 25.5385L31.7743 31.0471" stroke="white" stroke-width="4" stroke-linejoin="round"/>
<path d="M21.024 29.8481C22.496 29.0875 23.0727 27.2777 22.3121 25.8057C21.5515 24.3337 19.7417 23.7571 18.2697 24.5176C16.7978 25.2782 16.2211 27.088 16.9816 28.56C17.7422 30.032 19.5521 30.6087 21.024 29.8481Z" fill="#555555" stroke="white" stroke-width="4"/>
<path d="M34.9719 19.2642L36.349 21.9294M30.974 21.3299L32.3512 23.9952M28.9751 22.3628L36.9708 18.2314" stroke="white" stroke-width="4" stroke-linecap="round" stroke-linejoin="round"/>
</mask>
<g mask="url(#mask0_1470_1604)">
<path d="M-0.30957 14.7012L31.6732 -1.82458L48.199 30.1582L16.2162 46.684L-0.30957 14.7012Z" fill="#3734A9"/>
</g>
</g>
<defs>
<clipPath id="clip0_1470_1604">
<rect width="36" height="36" fill="white" transform="translate(0 16.7922) rotate(-27.3257)"/>
</clipPath>
</defs>
</svg>
