<svg width="32" height="32" viewBox="0 0 32 32" fill="none" xmlns="http://www.w3.org/2000/svg">
<path d="M23.6699 3.04565V3.99564V6.45063V9.81561V13.5256V16.9831V19.5981V20.8006V20.8206C23.6699 20.8506 23.6799 21.0106 23.6574 21.0281C23.6799 21.0131 23.6749 20.9181 23.6574 21.0131C23.6524 21.0406 23.6474 21.0681 23.6399 21.0956C23.6274 21.1506 23.6099 21.2031 23.5924 21.2556C23.5924 21.2531 23.5724 21.3181 23.5699 21.3181C23.5724 21.3181 23.6149 21.2206 23.5824 21.2906C23.5574 21.3406 23.5349 21.3881 23.5074 21.4356C23.4849 21.4731 23.4624 21.5106 23.4374 21.5456C23.4324 21.5556 23.3749 21.6456 23.4199 21.5731C23.4624 21.5056 23.3999 21.5956 23.3874 21.6106C23.3224 21.6856 23.2449 21.7431 23.1774 21.8131C23.1274 21.8631 23.2774 21.7456 23.1874 21.8031C23.1699 21.8156 23.1524 21.8281 23.1324 21.8406C23.0874 21.8706 23.0399 21.8981 22.9924 21.9231C22.9674 21.9356 22.9424 21.9481 22.9199 21.9606C22.8299 22.0056 22.9324 21.9656 22.9324 21.9556C22.9299 21.9681 22.8249 21.9931 22.8074 21.9981C22.7549 22.0156 22.6999 22.0281 22.6449 22.0381C22.6249 22.0431 22.5974 22.0431 22.5774 22.0506C22.6774 22.0131 22.6299 22.0456 22.5749 22.0481C22.5249 22.0531 22.4749 22.0531 22.4224 22.0531H22.2699H20.2799H16.8999H13.2499H10.4549H9.71739H9.57739H9.56989C9.54489 22.0531 9.52238 22.0531 9.49989 22.0506C9.47739 22.0506 9.45489 22.0481 9.42989 22.0456C9.41739 22.0456 9.40739 22.0431 9.39489 22.0431C9.33989 22.0356 9.34989 22.0381 9.42739 22.0481C9.41739 22.0681 9.16239 21.9831 9.13489 21.9756C9.12739 21.9731 9.07239 21.9556 9.07239 21.9531C9.07239 21.9556 9.16989 21.9981 9.09989 21.9656C9.04489 21.9381 8.99239 21.9131 8.93989 21.8806C8.89739 21.8556 8.85739 21.8281 8.81739 21.8006C8.73739 21.7481 8.84239 21.8206 8.83989 21.8206C8.82989 21.8231 8.78739 21.7756 8.77739 21.7681C8.74489 21.7406 8.55489 21.5881 8.56489 21.5456C8.55989 21.5656 8.62489 21.6356 8.57489 21.5556C8.55989 21.5331 8.54489 21.5106 8.52989 21.4881C8.50739 21.4506 8.48489 21.4131 8.46489 21.3756C8.45239 21.3506 8.43989 21.3256 8.42739 21.3031C8.41239 21.2731 8.41739 21.2281 8.41989 21.2881C8.42489 21.2981 8.42739 21.3081 8.43239 21.3181C8.42489 21.2981 8.41739 21.2756 8.40989 21.2556C8.39989 21.2231 8.38989 21.1931 8.37989 21.1606C8.36739 21.1181 8.35739 21.0731 8.34739 21.0306C8.34489 21.0206 8.34239 21.0081 8.33989 20.9981C8.33239 20.9531 8.33239 20.9531 8.33739 20.9981C8.33989 21.0081 8.33989 21.0206 8.34239 21.0306C8.33989 21.0081 8.33739 20.9856 8.33489 20.9631C8.33239 20.9156 8.32989 20.8706 8.32989 20.8231V20.7981V20.3931V18.3906V15.2631V11.6006V8.00313V5.03065V3.28313V3.05063L7.82987 3.55066H9.46237H13.3574H18.0925H22.1624C22.8225 3.55066 23.485 3.56566 24.1474 3.55066H24.1749C24.4374 3.55066 24.6875 3.32066 24.675 3.05063C24.6625 2.78061 24.455 2.55061 24.1749 2.55061H22.5424H18.6474H13.9124H9.84237C9.18235 2.55061 8.51986 2.53561 7.85737 2.55061H7.82987C7.55987 2.55061 7.32985 2.78061 7.32985 3.05063V4.01813V6.49562V9.91811V13.6406V17.1131V19.6956C7.32985 20.0706 7.32735 20.4431 7.32985 20.8181C7.33485 21.6382 7.79485 22.4331 8.53483 22.8081C8.90733 22.9956 9.30233 23.0631 9.71481 23.0631H11.7048H15.0923H18.7773H21.5748C22.2548 23.0631 22.9373 23.1181 23.5523 22.7631C24.2448 22.3631 24.6673 21.6106 24.6723 20.8156V20.4606V18.4981V15.3906V11.7006V8.07057V5.05557V3.28807V3.05058C24.6723 2.78807 24.4423 2.53807 24.1723 2.55055C23.8998 2.55555 23.6698 2.76555 23.6698 3.04555L23.6699 3.04565Z" fill="#EE0014"/>
<path d="M27.0422 2.54519H26.4522H24.8447H22.4672H19.5672H16.4022H13.1822H10.2022H7.67469H5.85718C5.56968 2.54519 5.28218 2.54019 4.9972 2.54519H4.9597C4.6972 2.54519 4.4472 2.77519 4.45968 3.04521C4.47216 3.31524 4.67968 3.54524 4.9597 3.54524H5.54969H7.15719H9.53469H12.4347H15.5997H18.8197H21.7997H24.3272H26.1448C26.4323 3.54524 26.7197 3.55024 27.0047 3.54524H27.0422C27.3047 3.54524 27.5547 3.31524 27.5422 3.04521C27.5298 2.77272 27.3223 2.54519 27.0422 2.54519Z" fill="#EE0014"/>
<path d="M19.6799 10.4956C19.6799 10.6006 19.6749 10.7056 19.6674 10.8106C19.6624 10.8631 19.6599 10.9131 19.6524 10.9656C19.6449 11.0256 19.6749 11.0381 19.6549 10.9531C19.6624 10.9806 19.6424 11.0281 19.6399 11.0556C19.6074 11.2556 19.5574 11.4531 19.4974 11.6481C19.4674 11.7431 19.4299 11.8381 19.3949 11.9306C19.3549 12.0356 19.4324 11.8531 19.3999 11.9181C19.3874 11.9431 19.3774 11.9681 19.3649 11.9931C19.3424 12.0431 19.3174 12.0931 19.2924 12.1431C19.1999 12.3231 19.0949 12.4981 18.9774 12.6631C18.9524 12.6981 18.9224 12.7581 18.8899 12.7831C18.8974 12.7781 18.9649 12.6906 18.9074 12.7606C18.8924 12.7781 18.8799 12.7956 18.8649 12.8106C18.7949 12.8956 18.7224 12.9756 18.6474 13.0556C18.5799 13.1256 18.5074 13.1931 18.4349 13.2606C18.4024 13.2906 18.3699 13.3181 18.3349 13.3456C18.3149 13.3631 18.2924 13.3806 18.2724 13.3981C18.1849 13.4706 18.3074 13.3756 18.2699 13.4006C18.1024 13.5181 17.9399 13.6331 17.7599 13.7331C17.6724 13.7806 17.5849 13.8256 17.4949 13.8681C17.4749 13.8781 17.4549 13.8856 17.4349 13.8956C17.3524 13.9331 17.4574 13.8906 17.4624 13.8856C17.4299 13.9156 17.3324 13.9381 17.2924 13.9531C17.0974 14.0231 16.8974 14.0806 16.6924 14.1206C16.6424 14.1306 16.5924 14.1406 16.5424 14.1481C16.5199 14.1506 16.4799 14.1656 16.4574 14.1606C16.4649 14.1631 16.5824 14.1456 16.4874 14.1556C16.3774 14.1681 16.2674 14.1756 16.1574 14.1806C15.9399 14.1881 15.7274 14.1781 15.5124 14.1556C15.4174 14.1456 15.5349 14.1631 15.5424 14.1606C15.5224 14.1656 15.4799 14.1506 15.4574 14.1481C15.4074 14.1406 15.3574 14.1306 15.3074 14.1206C15.1974 14.0981 15.0874 14.0706 14.9774 14.0406C14.8849 14.0156 14.7949 13.9856 14.7074 13.9531C14.6599 13.9356 14.6149 13.9181 14.5674 13.9006C14.4824 13.8681 14.5899 13.9131 14.5949 13.9131C14.5724 13.9156 14.5274 13.8831 14.5049 13.8731C14.3149 13.7856 14.1324 13.6831 13.9574 13.5681C13.8874 13.5206 13.7674 13.4656 13.7174 13.3981C13.7224 13.4056 13.8099 13.4731 13.7399 13.4156C13.7224 13.4006 13.7049 13.3881 13.6899 13.3731C13.6474 13.3381 13.6074 13.3031 13.5649 13.2656C13.4099 13.1281 13.2674 12.9781 13.1349 12.8181C13.1199 12.8006 13.1074 12.7831 13.0924 12.7681C13.0349 12.7006 13.1024 12.7856 13.1099 12.7906C13.0724 12.7631 13.0399 12.6956 13.0124 12.6581C12.9549 12.5781 12.9024 12.4956 12.8499 12.4106C12.7999 12.3256 12.7499 12.2381 12.7049 12.1506C12.6799 12.1006 12.6549 12.0506 12.6324 12.0006C12.6224 11.9806 12.6149 11.9606 12.6049 11.9406C12.5574 11.8356 12.6449 12.0456 12.6024 11.9381C12.5274 11.7456 12.4624 11.5481 12.4124 11.3481C12.3899 11.2531 12.3699 11.1606 12.3549 11.0656C12.3499 11.0381 12.3474 11.0081 12.3424 10.9806C12.3299 10.9056 12.3549 11.1106 12.3449 10.9931C12.3399 10.9356 12.3324 10.8781 12.3274 10.8206C12.3124 10.6056 12.3124 10.3881 12.3299 10.1731C12.3349 10.1206 12.3399 10.0706 12.3449 10.0181C12.3549 9.92308 12.3374 10.0406 12.3399 10.0481C12.3349 10.0281 12.3499 9.98558 12.3524 9.96308C12.3699 9.85558 12.3899 9.75058 12.4174 9.64558C12.4674 9.44308 12.5399 9.25058 12.6074 9.05559C12.6324 8.98559 12.5549 9.17059 12.6024 9.06809C12.6124 9.04809 12.6199 9.02809 12.6299 9.00809C12.6499 8.96309 12.6724 8.91809 12.6949 8.87309C12.7424 8.78059 12.7924 8.68809 12.8474 8.59809C12.8974 8.51309 12.9524 8.43059 13.0099 8.35059C13.0374 8.31059 13.0699 8.27059 13.0974 8.23059C13.1399 8.17059 13.0199 8.32559 13.0899 8.24059C13.1099 8.21559 13.1324 8.19059 13.1524 8.16559C13.2799 8.0156 13.4149 7.87309 13.5624 7.74309C13.6024 7.70559 13.6449 7.67059 13.6874 7.63559C13.7049 7.62059 13.7224 7.60809 13.7374 7.59309C13.7699 7.56559 13.7649 7.54309 13.7149 7.61059C13.7724 7.53559 13.9024 7.47309 13.9824 7.42059C14.1499 7.31309 14.3224 7.21809 14.5024 7.13309C14.5274 7.12059 14.5524 7.11059 14.5774 7.09809C14.6424 7.06559 14.4599 7.14309 14.5649 7.10309C14.6074 7.08809 14.6474 7.07059 14.6899 7.05559C14.7949 7.01809 14.9024 6.98309 15.0099 6.95309C15.1074 6.92559 15.2074 6.90309 15.3074 6.88309C15.3524 6.87309 15.3974 6.86559 15.4424 6.85809C15.4699 6.85309 15.4999 6.85059 15.5274 6.84559C15.5924 6.83559 15.4174 6.85809 15.5149 6.84809C15.7349 6.82559 15.9549 6.81559 16.1774 6.82309C16.2824 6.82809 16.3849 6.83809 16.4899 6.84809C16.5199 6.85059 16.5799 6.86809 16.4599 6.84309C16.4824 6.84809 16.5049 6.85059 16.5274 6.85309C16.5899 6.86309 16.6499 6.87309 16.7124 6.88559C16.9149 6.92809 17.1174 6.98309 17.3124 7.05559C17.3599 7.07309 17.4049 7.09309 17.4524 7.11059C17.5149 7.13309 17.3649 7.06809 17.4249 7.09809C17.4499 7.11059 17.4749 7.12059 17.4999 7.13309C17.5949 7.17809 17.6874 7.22559 17.7799 7.27559C17.8674 7.32309 17.9499 7.37559 18.0349 7.42809C18.1124 7.47809 18.2349 7.53559 18.2899 7.60809C18.2374 7.54059 18.2324 7.56309 18.2674 7.59059C18.2874 7.60809 18.3099 7.62559 18.3299 7.64309C18.3674 7.67559 18.4049 7.70559 18.4424 7.74059C18.5199 7.81059 18.5949 7.88309 18.6674 7.95559C18.7349 8.02559 18.8024 8.10059 18.8649 8.17559C18.8824 8.19559 18.8999 8.21809 18.9174 8.23809C18.9449 8.27059 18.9674 8.26559 18.8999 8.21559C18.9374 8.24559 18.9699 8.30809 18.9974 8.34809C19.1174 8.51809 19.2249 8.69808 19.3174 8.8856C19.3374 8.9256 19.3574 8.9656 19.3749 9.0056C19.3849 9.0256 19.3924 9.0456 19.4024 9.0656C19.4499 9.1681 19.3724 8.9856 19.3974 9.0531C19.4324 9.1531 19.4749 9.25059 19.5074 9.35059C19.5724 9.5556 19.6224 9.76309 19.6574 9.9756C19.6599 9.9981 19.6624 10.0206 19.6674 10.0431C19.6424 9.9206 19.6599 9.9831 19.6624 10.0131C19.6674 10.0656 19.6724 10.1156 19.6774 10.1681C19.6774 10.2756 19.6799 10.3856 19.6799 10.4956C19.6799 10.7581 19.9099 11.0081 20.1799 10.9956C20.45 10.9831 20.68 10.7756 20.68 10.4956C20.675 9.5431 20.3875 8.58808 19.8325 7.81062C19.265 7.01812 18.49 6.4231 17.5749 6.08811C15.7724 5.42561 13.6349 6.0056 12.4147 7.49062C11.7847 8.2556 11.4097 9.1756 11.3322 10.1656C11.2572 11.1156 11.4947 12.0931 11.9872 12.9081C12.4647 13.7006 13.1847 14.3606 14.0297 14.7431C14.9522 15.1606 15.9647 15.2807 16.9597 15.0806C18.8097 14.7106 20.3272 13.1406 20.6147 11.2731C20.6547 11.0156 20.6797 10.7581 20.6822 10.4982C20.6822 10.2357 20.4522 9.98565 20.1822 9.99813C19.9097 10.0081 19.6822 10.2156 19.6797 10.4956L19.6799 10.4956Z" fill="#EE0014"/>
<path d="M12.0151 19.5558H10.7326C10.7126 19.5558 10.6826 19.5508 10.6626 19.5558C10.6476 19.5583 10.6251 19.5408 10.6876 19.5608C10.7951 19.5983 10.6176 19.5333 10.7201 19.5708C10.7601 19.5883 10.7601 19.5883 10.7251 19.5683C10.7426 19.5808 10.7601 19.5933 10.7776 19.6058C10.7901 19.6233 10.8026 19.6408 10.8151 19.6583C10.7951 19.6208 10.7926 19.6233 10.8126 19.6633C10.8501 19.7683 10.7876 19.5908 10.8226 19.6958C10.8451 19.7633 10.8251 19.7358 10.8276 19.7233C10.8326 19.7008 10.8276 19.6658 10.8276 19.6433V18.9057V18.2807C10.8276 18.0182 10.5976 17.7682 10.3275 17.7807C10.0575 17.7932 9.82751 18.0007 9.82751 18.2807V19.6482C9.82751 19.8082 9.85002 19.9607 9.92251 20.1082C10.0575 20.3882 10.3575 20.5457 10.66 20.5557C10.8775 20.5607 11.095 20.5557 11.31 20.5557H12.015C12.2775 20.5557 12.5275 20.3257 12.5151 20.0557C12.5026 19.7857 12.2951 19.5557 12.015 19.5557L12.0151 19.5558Z" fill="#EE0014"/>
<path d="M19.9848 20.5547C20.4273 20.5547 20.8723 20.5597 21.3149 20.5547C21.8049 20.5497 22.1673 20.1847 22.1724 19.6948C22.1749 19.4523 22.1724 19.2098 22.1724 18.9673V18.2798C22.1724 18.0173 21.9424 17.7673 21.6723 17.7797C21.4023 17.7922 21.1723 17.9997 21.1723 18.2798V19.5848C21.1723 19.6123 21.1548 19.7048 21.1723 19.7298C21.1748 19.7073 21.1798 19.6848 21.1823 19.6623C21.1698 19.7048 21.1723 19.7048 21.1873 19.6623C21.2123 19.5923 21.1448 19.6798 21.2023 19.6323C21.2123 19.6248 21.3123 19.5473 21.2623 19.5748C21.2048 19.6073 21.3573 19.5423 21.2948 19.5623C21.2348 19.5798 21.3748 19.5648 21.3423 19.5548C21.3323 19.5523 21.3198 19.5548 21.3123 19.5548C21.0848 19.5448 20.8573 19.5548 20.6298 19.5548H19.9873C19.7248 19.5548 19.4748 19.7848 19.4873 20.0548C19.4973 20.3273 19.7048 20.5548 19.9848 20.5548L19.9848 20.5547Z" fill="#EE0014"/>
</svg>
