<?xml version="1.0" encoding="iso-8859-1"?>
<!-- Uploaded to: SVG Repo, www.svgrepo.com, Generator: SVG Repo Mixer Tools -->
<svg height="800px" width="800px" version="1.1" id="Layer_1" xmlns="http://www.w3.org/2000/svg" xmlns:xlink="http://www.w3.org/1999/xlink" 
	 viewBox="0 0 512.853 512.853" xml:space="preserve">
<g transform="translate(1 1)">
	<path style="fill:#FFDD09;" d="M498.2,338.2l-37.547-14.507l-22.187-89.6c-1.707-7.68-8.533-12.8-16.213-12.8h-89.6V187.16
		c0-5.12-3.413-8.533-8.533-8.533h-179.2c-7.68,39.253-10.24,68.267-51.2,68.267V417.56c0,5.12,3.413,8.533,8.533,8.533h42.667
		c0-23.893,18.773-42.667,42.667-42.667s42.667,18.773,42.667,42.667h102.4h34.133c0-23.893,18.773-42.667,42.667-42.667
		c23.893,0,42.667,18.773,42.667,42.667h42.667c5.12,0,8.533-3.413,8.533-8.533v-70.827C503.32,343.32,501.613,339.907,498.2,338.2"
		/>
	<path style="fill:#FCC309;" d="M324.12,178.627h-179.2c-7.68,39.253-10.24,68.267-51.2,68.267v68.267h153.6
		c46.933,0,85.333-38.4,85.333-85.333V187.16C332.653,182.04,329.24,178.627,324.12,178.627"/>
	<path style="fill:#FFFFFF;" d="M93.72,246.893V417.56c0,5.12,3.413,8.533,8.533,8.533h25.6c-5.12,0-8.533-3.413-8.533-8.533
		V246.893"/>
	<path style="fill:#1CD759;" d="M93.72,42.093c-49.493,0-85.333,38.4-85.333,81.067c0,25.6,9.387,39.253,22.187,64
		c25.6,49.493,63.147,110.933,63.147,110.933s37.547-61.44,63.147-110.933c12.8-24.747,22.187-38.4,22.187-64
		C179.053,80.493,143.213,42.093,93.72,42.093"/>
	<path style="fill:#54C9FD;" d="M136.387,127.427c0-23.893-18.773-42.667-42.667-42.667s-42.667,18.773-42.667,42.667
		s18.773,42.667,42.667,42.667S136.387,151.32,136.387,127.427"/>
	<path style="fill:#33A9F8;" d="M119.32,127.427c0-20.48-14.507-37.547-34.133-41.813c2.56-0.853,5.973-0.853,8.533-0.853
		c23.893,0,42.667,18.773,42.667,42.667s-18.773,42.667-42.667,42.667c-2.56,0-5.973,0-8.533-0.853
		C104.813,164.973,119.32,147.907,119.32,127.427"/>
	<g>
		<path style="fill:#FFDD09;" d="M230.253,426.093c0-23.893-18.773-42.667-42.667-42.667S144.92,402.2,144.92,426.093
			c0,23.893,18.773,42.667,42.667,42.667S230.253,449.987,230.253,426.093"/>
		<path style="fill:#FFDD09;" d="M452.12,426.093c0-23.893-18.773-42.667-42.667-42.667c-23.893,0-42.667,18.773-42.667,42.667
			c0,23.893,18.773,42.667,42.667,42.667C433.347,468.76,452.12,449.987,452.12,426.093"/>
	</g>
	<path style="fill:#FD9808;" d="M498.2,338.2l-37.547-14.507l-22.187-89.6c-1.707-7.68-8.533-12.8-16.213-12.8h-25.6
		c7.68,0,14.507,5.12,16.213,12.8l22.187,89.6L472.6,338.2c3.413,1.707,5.12,4.267,5.12,7.68v71.68c0,5.12-3.413,8.533-8.533,8.533
		h25.6c5.12,0,8.533-3.413,8.533-8.533v-70.827C503.32,343.32,501.613,339.907,498.2,338.2"/>
	<path d="M187.587,477.293c-28.16,0-51.2-23.04-51.2-51.2c0-28.16,23.04-51.2,51.2-51.2s51.2,23.04,51.2,51.2
		C238.787,454.253,215.747,477.293,187.587,477.293z M187.587,391.96c-18.773,0-34.133,15.36-34.133,34.133
		c0,18.773,15.36,34.133,34.133,34.133s34.133-15.36,34.133-34.133C221.72,407.32,206.36,391.96,187.587,391.96z"/>
	<path d="M187.587,443.16c-9.387,0-17.067-7.68-17.067-17.067c0-9.387,7.68-17.067,17.067-17.067s17.067,7.68,17.067,17.067
		C204.653,435.48,196.973,443.16,187.587,443.16"/>
	<path d="M409.453,443.16c-9.387,0-17.067-7.68-17.067-17.067c0-9.387,7.68-17.067,17.067-17.067c9.387,0,17.067,7.68,17.067,17.067
		C426.52,435.48,418.84,443.16,409.453,443.16"/>
	<path d="M409.453,477.293c-28.16,0-51.2-23.04-51.2-51.2c0-28.16,23.04-51.2,51.2-51.2c28.16,0,51.2,23.04,51.2,51.2
		C460.653,454.253,437.613,477.293,409.453,477.293z M409.453,391.96c-18.773,0-34.133,15.36-34.133,34.133
		c0,18.773,15.36,34.133,34.133,34.133c18.773,0,34.133-15.36,34.133-34.133C443.587,407.32,428.227,391.96,409.453,391.96z"/>
	<path d="M460.653,332.227h-74.24c-15.36,0-28.16-12.8-28.16-28.16V263.96c0-5.12,3.413-8.533,8.533-8.533s8.533,3.413,8.533,8.533
		v40.107c0,5.973,5.12,11.093,11.093,11.093h74.24c5.12,0,8.533,3.413,8.533,8.533S465.773,332.227,460.653,332.227z"/>
	<path d="M383.853,366.36h-17.067c-5.12,0-8.533-3.413-8.533-8.533c0-5.12,3.413-8.533,8.533-8.533h17.067
		c5.12,0,8.533,3.413,8.533,8.533C392.387,362.947,388.973,366.36,383.853,366.36z"/>
	<path d="M272.92,229.827H138.947c-5.12,0-8.533-3.413-8.533-8.533c0-5.12,3.413-8.533,8.533-8.533H272.92
		c5.12,0,8.533,3.413,8.533,8.533C281.453,226.413,278.04,229.827,272.92,229.827z"/>
	<path d="M255.853,281.027H136.387c-5.12,0-8.533-3.413-8.533-8.533c0-5.12,3.413-8.533,8.533-8.533h119.467
		c5.12,0,8.533,3.413,8.533,8.533C264.387,277.613,260.973,281.027,255.853,281.027z"/>
	<path d="M93.72,306.627c-2.56,0-5.973-1.707-7.68-4.267c0-0.853-38.4-62.293-64-111.787c-1.707-3.413-3.413-6.827-5.12-9.387
		C6.68,162.413-1,147.053-1,123.16c0.853-49.493,42.667-89.6,94.72-89.6s93.867,40.107,93.867,89.6
		c0,23.893-7.68,39.253-17.92,58.027c-1.707,3.413-3.413,5.973-5.12,9.387c-24.747,48.64-63.147,110.933-64,111.787
		C99.693,304.92,96.28,306.627,93.72,306.627z M93.72,50.627c-42.667,0-76.8,32.427-76.8,72.533
		c0,19.627,6.827,32.427,16.213,50.347c1.707,3.413,3.413,5.973,5.12,9.387c17.92,35.84,43.52,77.653,55.467,98.133
		c11.947-20.48,37.547-63.147,55.467-98.133c1.707-3.413,3.413-6.827,5.12-9.387c9.387-18.773,16.213-30.72,16.213-50.347
		C170.52,83.053,136.387,50.627,93.72,50.627z"/>
	<path d="M93.72,178.627c-28.16,0-51.2-23.04-51.2-51.2s23.04-51.2,51.2-51.2s51.2,23.04,51.2,51.2S121.88,178.627,93.72,178.627z
		 M93.72,93.293c-18.773,0-34.133,15.36-34.133,34.133s15.36,34.133,34.133,34.133s34.133-15.36,34.133-34.133
		S112.493,93.293,93.72,93.293z"/>
	<path d="M247.32,323.693H93.72c-5.12,0-8.533-3.413-8.533-8.533v-17.067c0-1.707,0.853-3.413,0.853-4.267
		s38.4-62.293,63.147-110.08c1.707-3.413,3.413-5.973,4.267-8.533c1.707-2.56,4.267-4.267,7.68-4.267H324.12
		c9.387,0,17.067,7.68,17.067,17.067v42.667C341.187,281.88,299.373,323.693,247.32,323.693z M102.253,306.627H247.32
		c42.667,0,76.8-34.133,76.8-76.8V187.16H166.253c-0.853,0.853-1.707,2.56-1.707,4.267c-22.187,43.52-55.467,98.133-62.293,109.227
		V306.627z"/>
	<path d="M494.787,434.627H452.12c-5.12,0-8.533-3.413-8.533-8.533c0-18.773-15.36-34.133-34.133-34.133
		c-18.773,0-34.133,15.36-34.133,34.133c0,5.12-3.413,8.533-8.533,8.533H230.253c-5.12,0-8.533-3.413-8.533-8.533
		c0-18.773-15.36-34.133-34.133-34.133s-34.133,15.36-34.133,34.133c0,5.12-3.413,8.533-8.533,8.533h-42.667
		c-9.387,0-17.067-7.68-17.067-17.067V298.093c0-1.707,0.853-3.413,0.853-4.267s38.4-62.293,63.147-110.08l4.267-8.533
		c1.707-2.56,4.267-4.267,7.68-4.267H324.12c9.387,0,17.067,7.68,17.067,17.067v25.6H421.4c11.947,0,22.187,7.68,24.747,19.627
		l21.333,85.333l33.28,13.653c6.827,2.56,11.093,8.533,11.093,16.213v69.12C511.853,426.947,504.173,434.627,494.787,434.627z
		 M459.8,417.56h34.987v-70.827l0,0l0,0l0,0l-37.547-14.507c-2.56-0.853-4.267-3.413-5.12-5.973l-22.187-89.6
		c-0.853-3.413-4.267-6.827-8.533-6.827h-88.747c-5.12,0-8.533-3.413-8.533-8.533V187.16H166.253l-1.707,4.267
		c-22.187,43.52-55.467,98.133-62.293,109.227V417.56h34.987c4.267-23.893,24.747-42.667,50.347-42.667s46.08,18.773,50.347,42.667
		h121.173c4.267-23.893,24.747-42.667,50.347-42.667C435.053,374.893,455.533,393.667,459.8,417.56z"/>
</g>
</svg>