<svg width="16" height="16" viewBox="0 0 16 16" fill="current" xmlns="http://www.w3.org/2000/svg">
<path d="M14.5312 2.5094H11.5625V1.91565C11.5625 1.44323 11.3748 0.990165 11.0408 0.656116C10.7067 0.322066 10.2537 0.134399 9.78125 0.134399H6.21875C5.74633 0.134399 5.29326 0.322066 4.95922 0.656116C4.62517 0.990165 4.4375 1.44323 4.4375 1.91565V2.5094H1.46875C1.31128 2.5094 1.16026 2.57196 1.04891 2.6833C0.937556 2.79465 0.875 2.94568 0.875 3.10315C0.875 3.26062 0.937556 3.41164 1.04891 3.52299C1.16026 3.63434 1.31128 3.6969 1.46875 3.6969H2.0625V14.3844C2.0625 14.6993 2.18761 15.0014 2.41031 15.2241C2.63301 15.4468 2.93506 15.5719 3.25 15.5719H12.75C13.0649 15.5719 13.367 15.4468 13.5897 15.2241C13.8124 15.0014 13.9375 14.6993 13.9375 14.3844V3.6969H14.5312C14.6887 3.6969 14.8397 3.63434 14.9511 3.52299C15.0624 3.41164 15.125 3.26062 15.125 3.10315C15.125 2.94568 15.0624 2.79465 14.9511 2.6833C14.8397 2.57196 14.6887 2.5094 14.5312 2.5094ZM6.8125 11.4156C6.8125 11.5731 6.74994 11.7241 6.63859 11.8355C6.52725 11.9468 6.37622 12.0094 6.21875 12.0094C6.06128 12.0094 5.91025 11.9468 5.79891 11.8355C5.68756 11.7241 5.625 11.5731 5.625 11.4156V6.66565C5.625 6.50818 5.68756 6.35715 5.79891 6.2458C5.91025 6.13446 6.06128 6.0719 6.21875 6.0719C6.37622 6.0719 6.52725 6.13446 6.63859 6.2458C6.74994 6.35715 6.8125 6.50818 6.8125 6.66565V11.4156ZM10.375 11.4156C10.375 11.5731 10.3124 11.7241 10.2011 11.8355C10.0897 11.9468 9.93872 12.0094 9.78125 12.0094C9.62378 12.0094 9.47275 11.9468 9.3614 11.8355C9.25006 11.7241 9.1875 11.5731 9.1875 11.4156V6.66565C9.1875 6.50818 9.25006 6.35715 9.3614 6.2458C9.47275 6.13446 9.62378 6.0719 9.78125 6.0719C9.93872 6.0719 10.0897 6.13446 10.2011 6.2458C10.3124 6.35715 10.375 6.50818 10.375 6.66565V11.4156ZM10.375 2.5094H5.625V1.91565C5.625 1.75818 5.68756 1.60715 5.79891 1.4958C5.91025 1.38446 6.06128 1.3219 6.21875 1.3219H9.78125C9.93872 1.3219 10.0897 1.38446 10.2011 1.4958C10.3124 1.60715 10.375 1.75818 10.375 1.91565V2.5094Z" />
</svg>
