<svg width="49" height="48" viewBox="0 0 49 48" fill="none" xmlns="http://www.w3.org/2000/svg">
<path d="M20.2447 47.56C18.4469 47.56 16.8125 47.0697 15.3416 46.089C10.1116 42.6569 5.04509 37.4269 1.44949 32.1969C-0.83862 28.7648 -0.348311 23.6983 2.43011 20.9198C3.90103 19.4489 5.69883 18.7952 7.66007 19.122C9.29443 19.4489 10.9288 20.2661 12.3997 21.737C13.8706 23.208 14.6878 24.8423 15.0147 26.4767C15.3416 28.4379 14.6878 30.2357 13.2169 31.7066C13.0535 31.8701 12.89 32.0335 12.7266 32.1969C13.5438 33.1776 14.5244 33.9947 15.505 34.9754C15.6684 34.8119 15.8319 34.6485 15.9953 34.4851C18.7737 31.7066 22.5328 32.0335 25.8015 35.3022C29.0702 38.571 29.3971 42.33 26.6187 45.1084C24.9843 46.5793 22.5328 47.56 20.2447 47.56Z" fill="black"/>
<path d="M37.2422 17.9781V16.9974L36.2616 17.9781H37.2422Z" fill="black"/>
<path d="M29.0704 0C19.2642 0 11.2558 7.02776 9.78491 16.3436C11.5827 16.9974 13.2171 17.978 14.688 19.4489C16.6492 21.4102 17.7933 23.5348 18.2836 25.8229C18.447 26.967 18.447 28.2745 18.1202 29.4185C21.3889 28.6014 25.1479 29.7454 28.0898 32.8507C29.8876 34.6485 31.1951 36.7732 31.5219 39.0613C41.1647 37.9172 48.6828 29.582 48.6828 19.6124C48.6828 8.82556 39.8572 0 29.0704 0ZM29.0704 24.5154H22.5329C21.8792 24.5154 21.2255 24.1886 21.062 23.5348C20.8986 22.8811 20.8986 22.2273 21.3889 21.737L26.1285 16.9974C26.292 16.8339 26.4554 16.5071 26.4554 16.0168C26.4554 15.5265 26.292 15.363 26.1285 15.0361C25.6382 14.5458 24.8211 14.5458 24.3307 15.0361L23.677 15.6899C23.0233 16.3436 22.0426 16.3436 21.3889 15.6899C20.7351 15.0361 20.7351 14.0555 21.3889 13.4018L22.0426 12.748C23.8404 10.9502 26.7823 10.9502 28.4167 12.748C29.2338 13.5652 29.7241 14.7093 29.7241 16.0168C29.7241 17.1608 29.2338 18.3049 28.4167 19.2855L26.4554 21.2467H29.0704C30.051 21.2467 30.7048 21.9005 30.7048 22.8811C30.7048 23.8617 30.051 24.5154 29.0704 24.5154ZM40.5109 22.8811C40.5109 23.8617 39.8572 24.5154 38.8766 24.5154C37.896 24.5154 37.2422 23.8617 37.2422 22.8811V21.2467H32.3391C31.6854 21.2467 31.0316 20.9198 30.8682 20.2661C30.7048 19.6124 30.7048 18.9586 31.1951 18.4683L37.7325 11.9309C38.2228 11.4405 38.8766 11.2771 39.5303 11.604C40.1841 11.7674 40.5109 12.4212 40.5109 13.0749V22.8811Z" fill="#FF7070"/>
</svg>
