<svg width="323" height="20" viewBox="0 0 323 20" fill="none" xmlns="http://www.w3.org/2000/svg">
<path d="M0.000951173 11.6612C-0.0100413 11.4124 0.0745781 11.1687 0.237485 10.9803C0.400392 10.7919 0.629209 10.673 0.877015 10.648C67.5057 3.8297 134.881 0.782421 201.898 0.0206037C241.825 -0.268887 282.506 2.48127 321.923 8.96434C322.211 9.014 322.471 9.1666 322.654 9.39365C322.838 9.6207 322.933 9.90671 322.921 10.1985C322.915 10.3224 322.86 10.4391 322.769 10.5232C322.678 10.6073 322.557 10.6521 322.433 10.648C215.184 8.5225 107.783 5.07145 0.625648 12.2554C0.54736 12.2605 0.46881 12.2499 0.394694 12.2242C0.320579 12.1985 0.252396 12.1581 0.194149 12.1055C0.135903 12.053 0.0887715 11.9893 0.055586 11.9182C0.0224005 11.8471 0.0038389 11.7701 0.000951173 11.6917V11.6612Z" fill="#7ED09C"/>
<path d="M41.3296 19.066C74.7659 15.0665 108.72 13.7333 142.316 16.5749C143.413 16.6663 144.259 17.5348 141.974 17.55C108.842 17.7252 74.6973 18.6699 41.5734 19.9954C39.4784 20.0716 40.3697 19.1727 41.3296 19.066Z" fill="#7ED09C"/>
<path d="M147.984 16.0187C150.386 15.7254 152.816 15.7408 155.214 16.0644C155.329 16.0247 155.451 16.013 155.571 16.0303C155.692 16.0476 155.806 16.0934 155.905 16.1638C156.004 16.2343 156.085 16.3273 156.14 16.4353C156.196 16.5432 156.225 16.6629 156.225 16.7844C156.225 16.9058 156.196 17.0255 156.14 17.1335C156.085 17.2414 156.004 17.3345 155.905 17.4049C155.806 17.4754 155.692 17.5211 155.571 17.5384C155.451 17.5557 155.329 17.544 155.214 17.5043C152.837 17.6681 150.451 17.6528 148.076 17.4586C147.964 17.5047 147.842 17.5234 147.722 17.5133C147.601 17.5032 147.485 17.4645 147.382 17.4003C147.279 17.3362 147.193 17.2485 147.131 17.1445C147.069 17.0405 147.033 16.9233 147.025 16.8025C147.018 16.6816 147.039 16.5607 147.087 16.4497C147.136 16.3387 147.21 16.2409 147.303 16.1643C147.397 16.0877 147.508 16.0345 147.626 16.0092C147.745 15.9839 147.867 15.9872 147.984 16.0187Z" fill="#7ED09C"/>
</svg>
