<svg width="50" height="48" viewBox="0 0 50 48" fill="none" xmlns="http://www.w3.org/2000/svg">
<path opacity="0.5" d="M49.1847 19.8463L46.7347 30.2963C44.6347 39.3213 40.4847 42.9713 32.6847 42.2213C31.4347 42.1213 30.0847 41.8963 28.6347 41.5463L24.4347 40.5463C14.0096 38.0713 10.7846 32.9213 13.2346 22.4713L15.6846 11.9964C16.1846 9.87136 16.7846 8.02136 17.5346 6.49636C20.4597 0.446358 25.4347 -1.17864 33.7847 0.796358L37.9597 1.77136C48.4347 4.22136 51.6347 9.39636 49.1847 19.8463Z" fill="#0FDA24"/>
<path d="M32.6849 42.2216C31.1349 43.2716 29.1849 44.1466 26.8099 44.9216L22.8599 46.2216C12.935 49.4216 7.71003 46.7466 4.48503 36.8216L1.28503 26.9466C-1.91497 17.0216 0.735032 11.7716 10.66 8.57158L14.61 7.27158C15.635 6.94658 16.61 6.67158 17.535 6.49658C16.785 8.02158 16.185 9.87158 15.685 11.9966L13.235 22.4716C10.785 32.9216 14.01 38.0716 24.4349 40.5466L28.6349 41.5466C30.0849 41.8966 31.4349 42.1216 32.6849 42.2216Z" fill="#292D32"/>
</svg>
