<svg width="50" height="45" viewBox="0 0 50 45" fill="none" xmlns="http://www.w3.org/2000/svg">
<path d="M48.4538 24.7005L41.6288 6.42551C40.9186 4.56891 39.6713 2.96609 38.046 1.82169C36.4206 0.677294 34.4911 0.0432468 32.5038 0.000506232C31.0838 -0.0139268 29.6776 0.28042 28.3826 0.863169C27.0876 1.44592 25.9348 2.30315 25.0038 3.37551C24.0866 2.31915 22.9539 1.4714 21.6818 0.889257C20.4098 0.307115 19.0278 0.00407294 17.6288 0.000506232C15.62 0.0184422 13.6632 0.64097 12.0133 1.78699C10.3634 2.933 9.09691 4.54937 8.37882 6.42551L1.55382 24.7005C1.4246 25.0404 1.37107 25.4044 1.39698 25.7671C1.42289 26.1298 1.5276 26.4824 1.70382 26.8005C1.87902 27.1127 2.11923 27.3837 2.40821 27.595C2.69719 27.8063 3.02819 27.9532 3.37882 28.0255L24.4788 32.5005H25.0038H25.5288L46.6288 28.0005C46.9794 27.9282 47.3104 27.7813 47.5994 27.57C47.8884 27.3587 48.1286 27.0877 48.3038 26.7755C48.4763 26.4607 48.579 26.1124 48.6049 25.7543C48.6308 25.3963 48.5793 25.0369 48.4538 24.7005Z" fill="black"/>
<path d="M36.254 17.5005C34.0473 17.5032 31.8736 18.036 29.9159 19.0541C27.9581 20.0721 26.2735 21.5456 25.004 23.3505C23.3247 20.9582 20.9268 19.1633 18.1582 18.2263C15.3897 17.2892 12.3946 17.2588 9.60754 18.1393C6.82051 19.0199 4.38658 20.7657 2.65898 23.1233C0.931382 25.4809 0 28.3277 0 31.2505C0 34.1733 0.931382 37.0201 2.65898 39.3777C4.38658 41.7353 6.82051 43.4811 9.60754 44.3616C12.3946 45.2422 15.3897 45.2118 18.1582 44.2747C20.9268 43.3376 23.3247 41.5427 25.004 39.1505C26.3612 41.0839 28.1937 42.6351 30.3247 43.6545C32.4557 44.6738 34.8134 45.1269 37.1705 44.9702C39.5275 44.8134 41.8044 44.052 43.7817 42.7595C45.7589 41.4669 47.3699 39.6867 48.4591 37.5905C49.5483 35.4944 50.0791 33.153 50.0004 30.792C49.9216 28.4311 49.2359 26.1302 48.0094 24.1113C46.7829 22.0924 45.0569 20.4236 42.9979 19.2656C40.9389 18.1077 38.6163 17.4998 36.254 17.5005Z" fill="#FF3459"/>
</svg>
