<svg width="155" height="155" viewBox="0 0 155 155" fill="none" xmlns="http://www.w3.org/2000/svg">
<path fill-rule="evenodd" clip-rule="evenodd" d="M116.095 48.1466C118.387 50.4293 118.395 54.1378 116.112 56.4298L66.7597 105.983C64.477 108.275 60.7687 108.282 58.4766 106L40.478 88.0759C38.1859 85.7933 38.1782 82.0848 40.4608 79.7927C42.7434 77.5006 46.4519 77.4929 48.7441 79.7755L62.5927 93.5666L107.812 48.1634C110.095 45.8714 113.803 45.8639 116.095 48.1466Z" fill="#279F51"/>
<path opacity="0.52" fill-rule="evenodd" clip-rule="evenodd" d="M77.6586 11.7143C46.6114 11.7143 20.565 33.3937 13.879 62.4361L13.879 62.4362C12.7906 67.1635 12.2143 72.0909 12.2143 77.1586C12.2143 113.275 41.5421 142.603 77.6586 142.603C113.775 142.603 143.103 113.275 143.103 77.1586C143.103 41.0421 113.775 11.7143 77.6586 11.7143ZM2.46331 59.808C10.3455 25.5697 41.03 0 77.6586 0C120.245 0 154.817 34.5725 154.817 77.1586C154.817 119.745 120.245 154.317 77.6586 154.317C35.0725 154.317 0.5 119.745 0.5 77.1586C0.5 71.1999 1.17796 65.3909 2.46331 59.808Z" fill="#279F51"/>
</svg>
