<svg width="201" height="200" viewBox="0 0 201 200" fill="none" xmlns="http://www.w3.org/2000/svg">
<path d="M101.996 191.044C153.975 191.044 196.112 166.715 196.112 136.704C196.112 106.693 153.975 82.3643 101.996 82.3643C50.0172 82.3643 7.88 106.693 7.88 136.704C7.88 166.715 50.0172 191.044 101.996 191.044Z" fill="#F5F5F5"/>
<path d="M164.052 163.353C178.798 163.353 190.752 156.451 190.752 147.937C190.752 139.422 178.798 132.521 164.052 132.521C149.306 132.521 137.352 139.422 137.352 147.937C137.352 156.451 149.306 163.353 164.052 163.353Z" fill="#E0E0E0"/>
<path d="M96.48 156.252L66.36 138.856L100.788 118.98L130.912 136.372L96.48 156.252Z" fill="#E0E0E0"/>
<path d="M14.464 150.872L53.312 173.3L85.896 154.492L47.048 132.064L14.464 150.872Z" fill="#E0E0E0"/>
<path d="M71.908 45.4515V43.2435C71.8914 43.116 71.8422 42.9948 71.7652 42.8918C71.6881 42.7888 71.5857 42.7074 71.468 42.6555L58.136 35.0075C57.8183 34.8478 57.4676 34.7646 57.112 34.7646C56.7564 34.7646 56.4058 34.8478 56.088 35.0075L17.772 57.0075C17.6543 57.0594 17.552 57.1408 17.4749 57.2438C17.3978 57.3468 17.3486 57.468 17.332 57.5955V59.8035C17.3482 59.9312 17.3973 60.0525 17.4744 60.1556C17.5515 60.2587 17.6541 60.34 17.772 60.3915L31.1 68.0275C31.4178 68.1872 31.7684 68.2704 32.124 68.2704C32.4796 68.2704 32.8303 68.1872 33.148 68.0275L71.464 46.0275C71.582 45.976 71.6845 45.8947 71.7616 45.7916C71.8388 45.6885 71.8878 45.5672 71.904 45.4395L71.908 45.4515Z" fill="#F0F0F0"/>
<path d="M17.7721 58.1715L31.1001 65.8195C31.4172 65.9811 31.7681 66.0653 32.1241 66.0653C32.48 66.0653 32.8309 65.9811 33.1481 65.8195L71.4641 43.8195C72.0281 43.4955 72.0281 42.9715 71.4641 42.6435L58.1361 35.0075C57.8183 34.8478 57.4677 34.7646 57.1121 34.7646C56.7565 34.7646 56.4058 34.8478 56.0881 35.0075L17.7721 57.0075C17.2081 57.3235 17.2081 57.8475 17.7721 58.1715Z" fill="#FAFAFA"/>
<path d="M32.124 66.0677V68.2717C31.7677 68.2769 31.4157 68.193 31.1 68.0277L17.772 60.3997C17.6541 60.3481 17.5515 60.2668 17.4744 60.1637C17.3973 60.0607 17.3482 59.9394 17.332 59.8117V57.5997C17.3399 57.5102 17.3686 57.4239 17.416 57.3477C17.26 57.6317 17.376 57.9597 17.772 58.1877L31.1 65.8237C31.4149 65.9913 31.7674 66.0753 32.124 66.0677Z" fill="#E0E0E0"/>
<path d="M39.2841 47.4121L50.5761 53.8481L69.2281 43.1441L57.9401 36.7041L39.2841 47.4121Z" fill="#E0E0E0"/>
<path d="M50.7041 53.3602L39.8121 47.1082C40.0951 46.1847 40.0741 45.1948 39.7521 44.2842L50.5761 50.4682C50.5761 50.4682 50.7841 51.1522 50.7041 53.3602Z" fill="white"/>
<path d="M50.0201 49.6002C50.324 49.7966 50.5774 50.062 50.7595 50.3748C50.9416 50.6875 51.0473 51.0389 51.068 51.4002V53.5042C51.068 54.1682 50.5961 54.4362 50.0201 54.1082L39.3 47.9322V47.4122L49.8921 53.4522C50.2401 53.6522 50.5201 53.4882 50.5201 53.0922V51.1402C50.508 50.9234 50.4448 50.7125 50.3357 50.5248C50.2265 50.3371 50.0745 50.1779 49.8921 50.0602L39.3 44.0002V43.4082L50.0201 49.6002Z" fill="#EBEBEB"/>
<path d="M39.3 43.4277L57.9401 32.7197L68.672 38.8797C68.9768 39.0763 69.2306 39.3423 69.4128 39.6558C69.5949 39.9694 69.7002 40.3216 69.72 40.6837V42.7997C69.7342 42.9291 69.7131 43.0599 69.6589 43.1783C69.6046 43.2966 69.5193 43.398 69.412 43.4717L50.76 54.1797C50.8654 54.1044 50.9489 54.0025 51.0023 53.8846C51.0557 53.7666 51.077 53.6366 51.064 53.5077V51.3997C51.0446 51.0381 50.9394 50.6863 50.7572 50.3733C50.575 50.0603 50.3209 49.7952 50.016 49.5997L39.3 43.4277Z" fill="#FAFAFA"/>
<path d="M50.7601 50.3642C50.9502 50.6728 51.0564 51.0258 51.0681 51.3882V53.4962C51.081 53.625 51.0597 53.755 51.0063 53.873C50.9529 53.991 50.8694 54.0928 50.7641 54.1682L69.4161 43.4602C69.5234 43.3864 69.6087 43.285 69.6629 43.1667C69.7171 43.0484 69.7383 42.9175 69.7241 42.7882V40.6842C69.7124 40.3218 69.6062 39.9688 69.4161 39.6602L50.7601 50.3642Z" fill="#F0F0F0"/>
<path d="M27.804 31.3916L27.696 32.8156L40.304 39.5796L40.588 38.7476L27.804 31.3916Z" fill="#EBEBEB"/>
<path d="M40.42 39.0802L28.208 32.0322L26.084 33.2562L38.536 40.5402L40.42 39.0802Z" fill="white"/>
<path d="M36.2441 39.7842L35.0441 53.9362C35.05 54.0959 35.0941 54.252 35.1727 54.3912C35.2514 54.5304 35.3623 54.6487 35.4961 54.7362L42.5801 58.8362C42.6931 58.8987 42.819 58.9343 42.9481 58.9402L38.5481 41.0162C38.4197 41.0092 38.2943 40.9751 38.1801 40.9162L37.6721 40.6202L36.2441 39.7842Z" fill="#E0E0E0"/>
<path d="M39.076 40.9002L40.34 39.8162L41.264 39.0162C41.36 38.8642 41.472 38.7522 41.412 38.6162L45.756 56.4082C45.816 56.5322 45.832 56.8082 45.66 56.9122L43.472 58.7842C43.3064 58.8719 43.1184 58.9081 42.932 58.8882L38.532 40.9642C38.7158 40.9959 38.9047 40.9737 39.076 40.9002Z" fill="#F0F0F0"/>
<path d="M41.2681 38.4999C41.5161 38.6439 41.4561 38.8039 41.2681 39.0199L39.0761 40.8959C38.9366 40.9688 38.7815 41.0069 38.6241 41.0069C38.4667 41.0069 38.3116 40.9688 38.1721 40.8959L36.2441 39.7839C35.9921 39.6399 35.9481 39.4319 36.1441 39.3199C36.2729 39.2677 36.4119 39.2456 36.5506 39.2553C36.6892 39.265 36.8238 39.3063 36.9441 39.3759L38.4641 40.2559C38.5106 40.2795 38.562 40.2918 38.6141 40.2918C38.6662 40.2918 38.7176 40.2795 38.7641 40.2559L40.3641 38.8639C40.4481 38.8159 40.4481 38.7399 40.3641 38.6919L27.8041 31.3919L28.4041 31.0439L41.2681 38.4999Z" fill="#FAFAFA"/>
<path d="M24.1641 32.0762L36.1761 39.0122V61.8682L24.1641 54.9282V32.0762Z" fill="#EBEBEB"/>
<path d="M35.788 39.3917L24.164 32.7197C23.4531 33.4735 22.5221 33.9831 21.504 34.1757L33.032 40.8197C33.032 40.8197 33.776 40.6437 35.788 39.3917Z" fill="white"/>
<path d="M31.9161 40.7999C32.2625 40.9734 32.6446 41.0638 33.0321 41.0638C33.4195 41.0638 33.8016 40.9734 34.1481 40.7999L36.1001 39.6559C36.7161 39.2999 36.7161 38.7279 36.1001 38.3719L24.6481 31.7959L24.1641 32.0759L35.4321 38.5839C35.5151 38.6081 35.5881 38.6587 35.6401 38.7279C35.692 38.7971 35.7201 38.8814 35.7201 38.9679C35.7201 39.0544 35.692 39.1387 35.6401 39.2079C35.5881 39.2771 35.5151 39.3277 35.4321 39.3519L33.6121 40.3999C33.4042 40.5044 33.1747 40.5588 32.9421 40.5588C32.7094 40.5588 32.4799 40.5044 32.2721 40.3999L21.0081 33.8879L20.4561 34.2039L31.9161 40.7999Z" fill="#FAFAFA"/>
<path d="M20.4601 34.2041V57.0561L31.9161 63.6321C32.2625 63.8056 32.6446 63.896 33.0321 63.896C33.4195 63.896 33.8017 63.8056 34.1481 63.6321L36.1081 62.5081C36.2355 62.4519 36.3454 62.3625 36.4264 62.2491C36.5073 62.1358 36.5562 62.0028 36.5681 61.8641V39.0121C36.5557 39.1513 36.5055 39.2844 36.4231 39.3972C36.3406 39.5099 36.2289 39.5981 36.1001 39.6521L34.1481 40.8001C33.8017 40.9736 33.4195 41.064 33.0321 41.064C32.6446 41.064 32.2625 40.9736 31.9161 40.8001L20.4601 34.2041Z" fill="#EBEBEB"/>
<path d="M33.032 41.0437C33.4204 41.0514 33.8043 40.9605 34.148 40.7797L36.1 39.6517C36.2274 39.5966 36.3374 39.5079 36.4184 39.3952C36.4994 39.2825 36.5484 39.15 36.56 39.0117V61.8637C36.5482 62.0025 36.4993 62.1355 36.4183 62.2488C36.3374 62.3621 36.2274 62.4515 36.1 62.5077L34.14 63.6317C33.7963 63.8125 33.4124 63.9034 33.024 63.8957L33.032 41.0437Z" fill="#F0F0F0"/>
<path d="M129.528 124C129.468 122.988 129.332 121.776 129.168 120.368C128.556 115.024 127.72 107.704 129.936 100.692C131.284 96.4238 134.532 91.3638 139.604 89.9598C140.732 89.6478 143.46 89.1878 144.508 91.6078C144.655 91.9575 144.743 92.3292 144.768 92.7078C144.876 94.2438 144.184 95.5998 143.416 96.8358C142.532 98.2718 141.508 99.6358 140.516 100.964C139.58 102.22 138.608 103.516 137.76 104.86C136.844 106.32 136.042 107.849 135.36 109.432L135.036 109.292C135.716 107.693 136.519 106.148 137.436 104.672C138.288 103.316 139.264 102.012 140.208 100.752C141.192 99.4318 142.208 98.0718 143.088 96.6518C143.824 95.4518 144.488 94.1678 144.388 92.7318C144.366 92.3931 144.288 92.0605 144.156 91.7478C143.22 89.5838 140.708 90.0158 139.672 90.2998C134.736 91.6678 131.564 96.6198 130.244 100.796C128.052 107.74 128.884 115.016 129.492 120.328C129.652 121.74 129.792 122.96 129.852 123.98L129.528 124Z" fill="#F98A2F"/>
<path d="M129.888 129.816C129.861 129.819 129.835 129.819 129.808 129.816C129.731 129.801 129.659 129.768 129.597 129.72C129.535 129.672 129.486 129.61 129.452 129.54C129.382 129.341 129.382 129.126 129.452 128.928C129.508 128.544 129.508 128.155 129.452 127.772C129.452 127.556 129.416 127.328 129.416 127.124V124.64C129.735 120.177 131.043 115.842 133.244 111.948C135.196 108.552 137.356 106.292 140.044 104.828C141.493 104.031 143.082 103.522 144.724 103.328C146.173 103.167 147.631 103.552 148.812 104.408C150.032 105.372 150.58 107.024 150.12 108.332C149.796 109.248 149.056 109.932 148.3 110.552C146.952 111.652 145.48 112.636 144.06 113.588C142.88 114.388 141.66 115.188 140.52 116.068C137.032 118.759 134.106 122.109 131.908 125.928C131.548 126.548 131.208 127.188 130.896 127.828L130.768 128.08C130.643 128.308 130.534 128.545 130.44 128.788C130.42 128.84 130.4 128.948 130.372 129.072C130.352 129.3 130.279 129.52 130.16 129.716C130.085 129.782 129.988 129.817 129.888 129.816ZM145.3 103.66C145.12 103.66 144.94 103.66 144.756 103.684C143.162 103.869 141.62 104.364 140.216 105.14C137.592 106.568 135.476 108.788 133.556 112.124C131.384 115.97 130.093 120.25 129.776 124.656V127.116C129.776 127.308 129.776 127.516 129.812 127.736C129.876 128.154 129.876 128.581 129.812 129C129.769 129.129 129.769 129.27 129.812 129.4C129.822 129.42 129.837 129.437 129.855 129.451C129.873 129.465 129.894 129.475 129.916 129.48C129.987 129.332 130.036 129.174 130.06 129.012C130.079 128.9 130.106 128.791 130.14 128.684C130.238 128.427 130.352 128.177 130.484 127.936L130.608 127.688C130.928 127.04 131.272 126.396 131.632 125.768C132.38 124.473 133.209 123.228 134.116 122.04C135.908 119.698 137.999 117.602 140.336 115.804C141.488 114.924 142.712 114.104 143.896 113.312C145.312 112.364 146.772 111.384 148.112 110.296C148.824 109.716 149.524 109.064 149.82 108.232C150.22 107.06 149.728 105.576 148.62 104.7C147.663 103.986 146.493 103.62 145.3 103.66Z" fill="#F98A2F"/>
<path d="M129.588 126.399H129.544C129.521 126.394 129.5 126.385 129.481 126.371C129.463 126.358 129.447 126.34 129.435 126.321C129.423 126.301 129.415 126.279 129.412 126.256C129.409 126.233 129.41 126.21 129.416 126.187C132.716 113.027 141.84 107.155 146.712 105.759C146.757 105.747 146.804 105.753 146.845 105.775C146.885 105.798 146.915 105.835 146.928 105.879C146.941 105.924 146.935 105.973 146.913 106.014C146.89 106.055 146.853 106.085 146.808 106.099C142.008 107.471 133.02 113.267 129.76 126.271C129.749 126.308 129.726 126.341 129.695 126.364C129.664 126.387 129.627 126.399 129.588 126.399Z" fill="#F98A2F"/>
<path d="M129.568 115.6C129.521 115.596 129.477 115.573 129.447 115.537C129.416 115.501 129.401 115.455 129.404 115.408C130.456 101.196 139.752 93.4076 140.808 92.5716C140.826 92.5566 140.847 92.5454 140.869 92.5386C140.891 92.5318 140.915 92.5297 140.938 92.5323C140.961 92.535 140.984 92.5423 141.004 92.5538C141.024 92.5654 141.042 92.581 141.056 92.5996C141.071 92.6177 141.081 92.6385 141.088 92.6608C141.094 92.6831 141.096 92.7064 141.094 92.7294C141.091 92.7525 141.084 92.7748 141.073 92.7951C141.061 92.8154 141.046 92.8332 141.028 92.8476C139.984 93.6756 130.796 101.372 129.76 115.436C129.755 115.482 129.732 115.525 129.697 115.556C129.661 115.586 129.615 115.602 129.568 115.6Z" fill="#F98A2F"/>
<path d="M128.46 66.0358L106.216 53.1998C106.044 53.0763 105.842 53.0006 105.632 52.9802C105.421 52.9598 105.208 52.9956 105.016 53.0838L103.416 54.0078C103.24 54.1303 103.1 54.2977 103.011 54.4925C102.922 54.6874 102.886 54.9026 102.908 55.1158V116C102.941 116.593 103.113 117.17 103.41 117.684C103.708 118.199 104.122 118.636 104.62 118.96L126.86 131.78C127.032 131.904 127.233 131.98 127.444 132.002C127.655 132.023 127.867 131.987 128.06 131.9L129.66 130.972C129.834 130.849 129.972 130.682 130.06 130.488C130.147 130.294 130.182 130.08 130.16 129.868V68.9958C130.129 68.4036 129.959 67.827 129.664 67.3128C129.368 66.7985 128.956 66.361 128.46 66.0358Z" fill="#263238"/>
<path d="M107.7 117.044L106.1 117.968V123.032C106.108 123.18 106.151 123.325 106.225 123.453C106.3 123.582 106.403 123.691 106.528 123.772L107.276 124.204C107.409 124.271 107.555 124.306 107.704 124.306C107.853 124.306 107.999 124.271 108.132 124.204L108.88 123.772C109.146 123.6 109.351 123.35 109.468 123.056L110.912 118.896L107.7 117.044Z" fill="#263238"/>
<path d="M106.1 123.032C106.108 123.18 106.151 123.324 106.225 123.453C106.3 123.582 106.403 123.691 106.528 123.772L107.276 124.204C107.328 124.235 107.386 124.254 107.446 124.26C107.506 124.265 107.567 124.257 107.623 124.236C107.68 124.215 107.731 124.181 107.773 124.138C107.814 124.094 107.846 124.041 107.864 123.984L109.3 119.82L106.1 117.968V123.032Z" fill="#37474F"/>
<path d="M123.748 126.279L122.148 127.207V132.267C122.155 132.416 122.198 132.561 122.271 132.69C122.345 132.819 122.448 132.929 122.572 133.011L123.324 133.443C123.456 133.51 123.602 133.545 123.75 133.545C123.898 133.545 124.044 133.51 124.176 133.443L124.928 133.011C125.194 132.84 125.399 132.589 125.516 132.295L126.956 128.131L123.748 126.279Z" fill="#263238"/>
<path d="M122.148 132.268C122.155 132.417 122.198 132.561 122.271 132.691C122.345 132.82 122.448 132.93 122.572 133.012L123.324 133.444C123.376 133.475 123.434 133.494 123.494 133.5C123.554 133.506 123.615 133.498 123.671 133.476C123.728 133.455 123.779 133.422 123.821 133.378C123.862 133.334 123.894 133.282 123.912 133.224L125.356 129.06L122.156 127.208L122.148 132.268Z" fill="#37474F"/>
<path d="M104.724 54.1715L126.964 66.9715C127.462 67.2965 127.876 67.7341 128.174 68.2491C128.471 68.764 128.643 69.3417 128.676 69.9355V130.819C128.718 131.033 128.693 131.255 128.603 131.454C128.512 131.652 128.362 131.817 128.174 131.926C127.985 132.035 127.767 132.082 127.55 132.061C127.333 132.04 127.128 131.951 126.964 131.807L104.724 118.983C104.227 118.659 103.813 118.222 103.516 117.708C103.219 117.193 103.048 116.616 103.016 116.023V55.1555C102.973 54.942 102.999 54.7205 103.088 54.5221C103.178 54.3238 103.328 54.1587 103.517 54.05C103.705 53.9413 103.923 53.8946 104.14 53.9164C104.356 53.9382 104.561 54.0274 104.724 54.1715Z" fill="#37474F"/>
<path d="M72.428 137.392L96.484 151.28L130.164 131.836L128.56 130.908L104.504 117.02L72.428 135.54V137.392Z" fill="#455A64"/>
<path d="M96.484 151.279V149.427L130.164 129.983V131.835L96.484 151.279Z" fill="#263238"/>
<path d="M96.636 148.584L96.392 148.42C100.66 141.96 100.632 130.8 100.284 128C100.256 127.812 100.236 127.696 100.232 127.652L100.524 127.604C100.524 127.692 100.556 127.796 100.572 127.92C100.884 129.9 102.648 140.656 104.736 143.92L104.488 144.08C102.836 141.516 101.424 134.596 100.716 130.604C100.76 135.136 100.1 143.372 96.636 148.584Z" fill="#FAFAFA"/>
<path d="M110.684 138.72C110.32 138.612 101.816 136.036 101.032 132.284L101.324 132.224C102.068 135.804 110.68 138.412 110.768 138.44L110.684 138.72Z" fill="#FAFAFA"/>
<path d="M102.1 137.2L101.884 136.284C101.854 136.116 101.769 135.962 101.641 135.849C101.513 135.736 101.351 135.669 101.18 135.66C101.039 135.639 100.895 135.663 100.768 135.726C100.641 135.79 100.536 135.891 100.468 136.016L100.192 135.9C100.285 135.717 100.432 135.567 100.613 135.471C100.794 135.375 101.001 135.338 101.204 135.364C101.351 135.373 101.495 135.414 101.625 135.483C101.755 135.552 101.87 135.648 101.96 135.764C102.008 135.385 102.202 135.039 102.5 134.8C102.613 134.741 102.74 134.712 102.867 134.716C102.995 134.72 103.119 134.758 103.228 134.824L103.096 135.088C103.029 135.045 102.953 135.02 102.874 135.015C102.795 135.01 102.715 135.026 102.644 135.06C102.304 135.252 102.172 135.992 102.152 136.26L102.1 137.2Z" fill="#FAFAFA"/>
<path d="M102.936 140.252L102.672 139.42C102.372 138.48 101.872 137.94 101.28 137.904C101.033 137.899 100.789 137.966 100.58 138.098C100.37 138.229 100.203 138.419 100.1 138.644L99.832 138.516C99.9585 138.235 100.166 137.998 100.427 137.835C100.688 137.672 100.992 137.59 101.3 137.6C101.656 137.62 102.268 137.812 102.724 138.74C102.824 138.008 103.124 136.832 103.896 136.34C104.173 136.188 104.485 136.11 104.801 136.113C105.117 136.117 105.426 136.202 105.7 136.36L105.576 136.628C105.347 136.492 105.087 136.418 104.821 136.411C104.555 136.405 104.291 136.467 104.056 136.592C103.028 137.232 102.96 139.348 102.96 139.372L102.936 140.252Z" fill="#FAFAFA"/>
<path d="M99.324 142.284L99.06 142.148C99.652 141.008 100.952 140.188 102.08 140.244C102.319 140.246 102.555 140.303 102.77 140.409C102.984 140.515 103.172 140.667 103.32 140.856C103.429 140.28 103.653 139.732 103.978 139.246C104.304 138.759 104.725 138.343 105.216 138.024C105.743 137.674 106.35 137.465 106.981 137.418C107.611 137.371 108.243 137.488 108.816 137.756L108.7 138.024C108.173 137.779 107.591 137.674 107.012 137.717C106.432 137.761 105.873 137.952 105.388 138.272C104.869 138.608 104.436 139.061 104.124 139.594C103.811 140.127 103.628 140.727 103.588 141.344V142.1L103.308 141.396C103.215 141.145 103.048 140.929 102.83 140.776C102.611 140.623 102.351 140.541 102.084 140.54C101.048 140.488 99.868 141.24 99.324 142.284Z" fill="#FAFAFA"/>
<path d="M97.7 146.699L97.44 146.555C97.8 145.899 99.716 142.603 101.984 142.007C102.304 141.915 102.64 141.893 102.97 141.94C103.299 141.988 103.615 142.105 103.896 142.283L103.744 142.535C103.496 142.379 103.218 142.276 102.928 142.234C102.638 142.192 102.342 142.211 102.06 142.291C100.396 142.731 98.676 144.939 97.7 146.699Z" fill="#FAFAFA"/>
<path d="M126.956 111.463V113.315L96.484 130.907L72.428 117.019V115.167L102.9 97.5752L126.956 111.463Z" fill="#263238"/>
<path d="M126.956 111.463L96.484 129.055L72.428 115.167L102.9 97.5752L126.956 111.463Z" fill="#455A64"/>
<path d="M126.956 91.0951V92.9431L96.484 110.539L72.428 96.6471V94.7991L102.9 77.2031L126.956 91.0951Z" fill="#263238"/>
<path d="M126.956 91.0951L96.484 108.687L72.428 94.7991L102.9 77.2031L126.956 91.0951Z" fill="#455A64"/>
<path d="M96.38 84.5311L74.14 71.7111C73.9683 71.5869 73.7669 71.5104 73.5561 71.4894C73.3454 71.4683 73.1328 71.5034 72.94 71.5911C72.652 71.7551 71.628 72.351 71.34 72.515C71.1648 72.638 71.0257 72.8056 70.937 73.0004C70.8484 73.1952 70.8135 73.4102 70.836 73.6231V134.491C70.8686 135.084 71.0407 135.661 71.3381 136.176C71.6356 136.69 72.0501 137.127 72.548 137.451L94.788 150.275C94.9596 150.399 95.161 150.476 95.3718 150.497C95.5826 150.518 95.7951 150.483 95.988 150.395C96.276 150.227 97.308 149.635 97.588 149.463C97.764 149.341 97.9043 149.175 97.9943 148.981C98.0843 148.787 98.1208 148.572 98.1 148.359V87.4951C98.067 86.9004 97.894 86.322 97.5951 85.8069C97.2962 85.2919 96.8799 84.8547 96.38 84.5311Z" fill="#263238"/>
<path opacity="0.2" d="M96.484 93.8747L98.092 92.9467V87.3867L96.48 88.3147L96.484 93.8747Z" fill="black"/>
<path opacity="0.2" d="M128.564 75.3551L130.172 74.4311V68.8711L128.56 69.7991L128.564 75.3551Z" fill="black"/>
<path d="M75.636 135.539L74.036 136.463V141.527C74.0441 141.675 74.0871 141.82 74.1615 141.948C74.2358 142.077 74.3395 142.186 74.464 142.267L75.212 142.699C75.3447 142.766 75.4913 142.801 75.64 142.801C75.7887 142.801 75.9353 142.766 76.068 142.699L76.816 142.267C77.0807 142.096 77.2861 141.847 77.404 141.555L78.848 137.391L75.636 135.539Z" fill="#263238"/>
<path d="M74.032 141.527C74.0401 141.675 74.083 141.82 74.1574 141.948C74.2318 142.077 74.3354 142.186 74.46 142.267L75.208 142.699C75.2597 142.73 75.3178 142.749 75.3779 142.755C75.4381 142.761 75.4987 142.752 75.5553 142.731C75.6119 142.71 75.6629 142.676 75.7046 142.633C75.7463 142.589 75.7775 142.536 75.796 142.479L77.24 138.315L74.04 136.463L74.032 141.527Z" fill="#37474F"/>
<path d="M91.672 144.799L90.072 145.723V150.787C90.0793 150.935 90.1215 151.079 90.1952 151.208C90.2689 151.336 90.372 151.446 90.496 151.527L91.248 151.959C91.3799 152.026 91.5259 152.061 91.674 152.061C91.822 152.061 91.968 152.026 92.1 151.959L92.852 151.527C93.1157 151.355 93.3207 151.106 93.44 150.815L94.88 146.651L91.672 144.799Z" fill="#263238"/>
<path d="M90.072 150.767C90.0793 150.915 90.1215 151.059 90.1952 151.188C90.2689 151.317 90.372 151.426 90.496 151.507L91.248 151.939C91.2996 151.97 91.3577 151.99 91.4179 151.995C91.478 152.001 91.5387 151.993 91.5953 151.972C91.6518 151.95 91.7029 151.917 91.7446 151.873C91.7863 151.829 91.8175 151.777 91.836 151.719L93.276 147.555L90.076 145.703L90.072 150.767Z" fill="#37474F"/>
<path d="M72.532 72.6392L94.776 85.4592C95.2734 85.7844 95.6873 86.2223 95.984 86.7372C96.2808 87.2522 96.4521 87.8298 96.484 88.4232V151.279C96.484 151.279 95.248 150.547 94.776 150.275L72.536 137.451C72.0381 137.127 71.6236 136.69 71.3261 136.176C71.0287 135.662 70.8567 135.084 70.824 134.491V73.6232C70.7812 73.4098 70.8065 73.1882 70.8963 72.9899C70.9861 72.7916 71.1359 72.6264 71.3245 72.5178C71.5132 72.4091 71.7312 72.3623 71.9478 72.3841C72.1644 72.4059 72.3688 72.4952 72.532 72.6392Z" fill="#37474F"/>
<path opacity="0.2" d="M94.776 85.4592L72.532 72.6392C72.3688 72.4952 72.1644 72.4059 71.9478 72.3841C71.7312 72.3623 71.5132 72.4091 71.3245 72.5178C71.1359 72.6264 70.9861 72.7916 70.8963 72.9899C70.8065 73.1882 70.7812 73.4098 70.824 73.6232V79.0592L96.484 93.8592V88.4232C96.4521 87.8298 96.2808 87.2522 95.984 86.7372C95.6873 86.2223 95.2734 85.7844 94.776 85.4592Z" fill="black"/>
<path d="M125.352 91.2439C125.313 91.2429 125.276 91.227 125.248 91.1994C125.221 91.1719 125.205 91.1348 125.204 91.0959V72.8319L107.784 82.8879C107.768 82.8985 107.749 82.9056 107.73 82.9087C107.711 82.9118 107.691 82.9109 107.673 82.906C107.654 82.9011 107.636 82.8923 107.621 82.8803C107.606 82.8682 107.593 82.8531 107.584 82.8359C107.574 82.8191 107.567 82.8005 107.564 82.7811C107.562 82.7618 107.563 82.742 107.567 82.7231C107.572 82.7041 107.581 82.6863 107.593 82.6706C107.604 82.655 107.619 82.6418 107.636 82.6319L125.3 72.4479C125.322 72.4341 125.348 72.4268 125.374 72.4268C125.4 72.4268 125.426 72.4341 125.448 72.4479C125.47 72.4611 125.488 72.4799 125.501 72.5024C125.514 72.5248 125.52 72.5502 125.52 72.5759V91.0959C125.52 91.1172 125.516 91.1382 125.507 91.1576C125.499 91.177 125.486 91.1943 125.47 91.2083C125.454 91.2224 125.435 91.2328 125.415 91.239C125.394 91.2451 125.373 91.2468 125.352 91.2439Z" fill="#FAFAFA"/>
<path d="M122.144 86.6115H122.1C122.062 86.6029 122.029 86.5795 122.008 86.5466C121.987 86.5136 121.98 86.4737 121.988 86.4355L124.972 73.5115L119.052 83.7635C119.043 83.7806 119.03 83.7956 119.015 83.8078C119 83.8199 118.983 83.8288 118.964 83.8341C118.945 83.8393 118.926 83.8407 118.906 83.8382C118.887 83.8357 118.869 83.8293 118.852 83.8195C118.835 83.8099 118.82 83.797 118.807 83.7815C118.795 83.766 118.786 83.7482 118.781 83.7292C118.776 83.7102 118.775 83.6904 118.777 83.6709C118.78 83.6513 118.786 83.6325 118.796 83.6155L125.196 72.5035C125.214 72.4729 125.243 72.4498 125.276 72.4381C125.31 72.4264 125.347 72.4269 125.38 72.4395C125.413 72.4529 125.44 72.4776 125.456 72.5091C125.472 72.5407 125.476 72.577 125.468 72.6115L122.268 86.5035C122.261 86.532 122.245 86.5576 122.223 86.5769C122.201 86.5962 122.173 86.6083 122.144 86.6115Z" fill="#FAFAFA"/>
<path d="M115.732 81.9991C115.712 81.9992 115.691 81.995 115.673 81.9867C115.654 81.9784 115.638 81.9663 115.624 81.9511C115.597 81.9234 115.581 81.8861 115.581 81.8471C115.581 81.8082 115.597 81.7708 115.624 81.7431L125.248 72.4831C125.276 72.4558 125.313 72.4404 125.352 72.4404C125.391 72.4404 125.428 72.4558 125.456 72.4831C125.484 72.5115 125.499 72.5495 125.499 72.5891C125.499 72.6287 125.484 72.6668 125.456 72.6951L115.832 81.9511C115.819 81.9653 115.804 81.9769 115.787 81.9851C115.77 81.9934 115.751 81.9981 115.732 81.9991Z" fill="#FAFAFA"/>
<path d="M125.352 88.2874C125.313 88.2864 125.276 88.2704 125.248 88.2429C125.221 88.2154 125.205 88.1783 125.204 88.1394C125.204 85.7154 122.5 85.5514 122.384 85.5474C122.362 85.5458 122.341 85.5396 122.322 85.5293C122.302 85.5189 122.285 85.5047 122.272 85.4874C122.259 85.4704 122.251 85.4508 122.247 85.43C122.242 85.4093 122.243 85.3879 122.248 85.3674C122.347 84.8722 122.313 84.3597 122.151 83.8815C121.989 83.4034 121.704 82.9763 121.324 82.6434C121.185 82.505 121.019 82.3977 120.835 82.3287C120.652 82.2598 120.456 82.2307 120.26 82.2434C120.156 82.261 120.056 82.3009 119.969 82.3602C119.881 82.4196 119.807 82.497 119.752 82.5874C119.735 82.6165 119.709 82.6392 119.678 82.6515C119.647 82.6639 119.612 82.6652 119.58 82.6554C119.548 82.6455 119.52 82.6251 119.501 82.5975C119.483 82.5699 119.474 82.5367 119.476 82.5034C119.476 82.4114 119.64 80.2554 117.744 80.0434C117.72 80.0404 117.696 80.0316 117.676 80.0176C117.656 80.0037 117.639 79.9851 117.628 79.9634C117.617 79.9423 117.611 79.919 117.611 79.8954C117.611 79.8717 117.617 79.8484 117.628 79.8274C117.628 79.8274 118.468 78.2554 118.144 77.4834C118.107 77.3927 118.048 77.3121 117.974 77.2482C117.9 77.1843 117.811 77.1388 117.716 77.1154C117.697 77.1103 117.679 77.1015 117.664 77.0894C117.648 77.0773 117.636 77.0621 117.626 77.0449C117.617 77.0277 117.611 77.0087 117.609 76.9892C117.608 76.9697 117.61 76.95 117.616 76.9314C117.628 76.8943 117.654 76.8632 117.688 76.8446C117.722 76.826 117.762 76.8213 117.8 76.8314C117.938 76.8668 118.065 76.9341 118.172 77.0279C118.279 77.1217 118.363 77.2394 118.416 77.3714C118.724 78.1034 118.204 79.3154 117.98 79.7714C119.452 80.0554 119.724 81.4434 119.764 82.1314C119.896 82.038 120.046 81.9738 120.204 81.9434C120.444 81.9201 120.687 81.9515 120.913 82.0353C121.14 82.1192 121.345 82.2532 121.512 82.4274C121.909 82.7779 122.214 83.2216 122.397 83.7187C122.581 84.2157 122.638 84.7507 122.564 85.2754C123.212 85.3594 125.5 85.8114 125.496 88.1474C125.494 88.1845 125.478 88.2196 125.451 88.2455C125.425 88.2715 125.389 88.2864 125.352 88.2874Z" fill="#FAFAFA"/>
<path d="M125.352 84.2955C125.315 84.2956 125.279 84.2817 125.251 84.2565C125.224 84.2312 125.207 84.1966 125.204 84.1595C125.14 83.3115 124.648 82.2155 124.028 81.9435C123.905 81.8886 123.769 81.8707 123.636 81.892C123.503 81.9133 123.38 81.9729 123.28 82.0635C123.256 82.0792 123.227 82.0875 123.198 82.0875C123.169 82.0875 123.141 82.0792 123.116 82.0635C123.091 82.0495 123.07 82.0285 123.056 82.0029C123.043 81.9773 123.037 81.9483 123.04 81.9195C123.04 81.9195 123.172 80.4195 122.496 79.7995C122.349 79.677 122.176 79.5914 121.989 79.5496C121.803 79.5079 121.609 79.5112 121.424 79.5595C121.399 79.5649 121.372 79.5633 121.347 79.5548C121.323 79.5464 121.301 79.5314 121.284 79.5115C121.267 79.4914 121.255 79.4671 121.25 79.4412C121.245 79.4152 121.247 79.3885 121.256 79.3635C121.392 78.9915 121.656 77.9475 121.3 77.5755C121.132 77.4035 120.824 77.3875 120.38 77.5315C120.35 77.5415 120.317 77.5415 120.287 77.5314C120.256 77.5213 120.23 77.5017 120.212 77.4755C120.194 77.4498 120.184 77.419 120.184 77.3875C120.184 77.3559 120.194 77.3252 120.212 77.2995C120.46 76.9875 121.072 76.0755 120.92 75.6395C120.895 75.5793 120.854 75.5268 120.802 75.4874C120.75 75.4481 120.689 75.4232 120.624 75.4155C120.605 75.4108 120.587 75.4024 120.572 75.3908C120.556 75.3792 120.543 75.3647 120.533 75.3479C120.523 75.3312 120.516 75.3127 120.513 75.2934C120.51 75.2741 120.511 75.2544 120.516 75.2355C120.52 75.2164 120.527 75.1983 120.538 75.1824C120.549 75.1664 120.564 75.1529 120.58 75.1427C120.597 75.1326 120.615 75.126 120.635 75.1234C120.654 75.1207 120.673 75.1221 120.692 75.1275C120.804 75.1438 120.91 75.1894 120.999 75.2596C121.089 75.3298 121.158 75.4222 121.2 75.5275C121.364 76.0035 120.964 76.7275 120.684 77.1275C120.828 77.0932 120.979 77.0946 121.122 77.1315C121.266 77.1684 121.398 77.2398 121.508 77.3395C121.948 77.7955 121.736 78.7595 121.604 79.2115C121.799 79.1882 121.997 79.2064 122.184 79.265C122.372 79.3236 122.545 79.4212 122.692 79.5515C123.288 80.0955 123.352 81.1515 123.344 81.6355C123.469 81.5766 123.606 81.5461 123.744 81.5461C123.882 81.5461 124.019 81.5766 124.144 81.6355C124.9 81.9675 125.424 83.1475 125.5 84.1035C125.502 84.1227 125.499 84.1421 125.493 84.1604C125.487 84.1788 125.478 84.1957 125.465 84.2103C125.452 84.2249 125.437 84.2367 125.42 84.2452C125.402 84.2536 125.383 84.2585 125.364 84.2595L125.352 84.2955Z" fill="#FAFAFA"/>
<path d="M133.968 66.0956C133.949 65.8832 133.874 65.6797 133.75 65.5061C133.626 65.3324 133.459 65.1949 133.264 65.1076L109.42 51.3396C108.89 51.0714 108.304 50.9316 107.71 50.9316C107.116 50.9316 106.53 51.0714 106 51.3396L69.328 72.5156C69.1334 72.6029 68.9656 72.7404 68.8419 72.9141C68.7182 73.0877 68.6429 73.2912 68.624 73.5036V75.3556C68.6429 75.568 68.7182 75.7714 68.8419 75.9451C68.9656 76.1187 69.1334 76.2563 69.328 76.3436L93.172 90.1076C93.7015 90.3776 94.2875 90.5184 94.882 90.5184C95.4764 90.5184 96.0624 90.3776 96.592 90.1076L133.264 68.9356C133.459 68.8483 133.626 68.7107 133.75 68.5371C133.874 68.3634 133.949 68.16 133.968 67.9476V66.0956Z" fill="#37474F"/>
<path d="M93.172 88.2556L69.328 74.4916C68.384 73.9436 68.384 73.0596 69.328 72.5156L106 51.3396C106.53 51.0714 107.116 50.9316 107.71 50.9316C108.304 50.9316 108.89 51.0714 109.42 51.3396L133.264 65.1076C134.212 65.6556 134.212 66.5356 133.264 67.0836L96.592 88.2556C96.0624 88.5256 95.4764 88.6664 94.882 88.6664C94.2875 88.6664 93.7015 88.5256 93.172 88.2556Z" fill="#455A64"/>
<path opacity="0.1" d="M128.56 71.6475L117.336 85.5395L98.092 96.6515L98.088 89.2435L128.56 71.6475Z" fill="black"/>
<path opacity="0.1" d="M126.956 92.9434L117.336 105.907L98.092 117.023V109.611L126.956 92.9434Z" fill="black"/>
<path opacity="0.1" d="M126.956 113.315L117.336 126.279L98.092 137.395V129.983L126.956 113.315Z" fill="black"/>
<path d="M82.812 153.776L53.308 170.812L20.084 151.584L49.588 134.552L82.812 153.776Z" fill="#F98A2F"/>
<path opacity="0.5" d="M82.812 153.776L53.308 170.812L20.084 151.584L49.588 134.552L82.812 153.776Z" fill="black"/>
<path d="M49.588 111.46V134.552L20.084 151.584V128.496L49.588 111.46Z" fill="#F98A2F"/>
<path opacity="0.23" d="M49.588 111.46V134.552L20.084 151.584V128.496L49.588 111.46Z" fill="black"/>
<path d="M53.308 147.72V170.812L20.084 151.584V128.496L53.308 147.72Z" fill="#F98A2F"/>
<path opacity="0.38" d="M53.308 147.72V170.812L20.084 151.584V128.496L53.308 147.72Z" fill="black"/>
<path d="M82.812 130.684V153.776L49.588 134.552V111.46L82.812 130.684Z" fill="#F98A2F"/>
<path opacity="0.4" d="M82.812 130.684V153.776L49.588 134.552V111.46L82.812 130.684Z" fill="black"/>
<path d="M82.812 153.776V130.684L53.308 147.72V170.812L82.812 153.776Z" fill="#F98A2F"/>
<path opacity="0.23" d="M82.812 153.776V130.684L53.308 147.72V170.812L82.812 153.776Z" fill="black"/>
<path d="M49.588 111.46L49.628 98.6758L82.772 117.924L82.812 130.684L49.588 111.46Z" fill="#F98A2F"/>
<path opacity="0.2" d="M49.588 111.46L49.628 98.6758L82.772 117.924L82.812 130.684L49.588 111.46Z" fill="black"/>
<path d="M53.308 147.72L56.076 136.536L85.312 119.656L82.812 130.684L53.308 147.72Z" fill="#F98A2F"/>
<path opacity="0.3" d="M53.308 147.72L56.076 136.536L85.312 119.656L82.812 130.684L53.308 147.72Z" fill="black"/>
<path d="M20.084 128.496L16.564 116.896L46.068 99.8643L49.588 111.46L20.084 128.496Z" fill="#F98A2F"/>
<path opacity="0.1" d="M20.084 128.496L16.564 116.896L46.068 99.8643L49.588 111.46L20.084 128.496Z" fill="black"/>
<path d="M20.084 128.496L13.14 118.908L46.368 138.132L53.308 147.72L20.084 128.496Z" fill="#F98A2F"/>
<path opacity="0.45" d="M20.084 128.496L13.14 118.908L46.368 138.132L53.308 147.72L20.084 128.496Z" fill="black"/>
<g opacity="0.7">
<path d="M61.996 163.944C61.9479 163.944 61.9017 163.925 61.8673 163.891C61.8329 163.858 61.8131 163.812 61.812 163.764V159.7C61.813 159.651 61.8327 159.605 61.867 159.571C61.9013 159.536 61.9475 159.517 61.996 159.516C62.0441 159.517 62.0899 159.537 62.1235 159.571C62.1572 159.605 62.176 159.652 62.176 159.7V163.764C62.176 163.811 62.157 163.857 62.1233 163.891C62.0895 163.925 62.0438 163.944 61.996 163.944Z" fill="white"/>
<path d="M61.464 161.107C61.4402 161.111 61.4159 161.111 61.392 161.107C61.3484 161.087 61.3141 161.051 61.2962 161.006C61.2784 160.961 61.2783 160.912 61.296 160.867L61.944 159.375L62.664 160.207C62.6898 160.244 62.7009 160.29 62.6953 160.335C62.6896 160.38 62.6676 160.421 62.6334 160.451C62.5993 160.48 62.5553 160.496 62.51 160.496C62.4648 160.495 62.4213 160.478 62.388 160.447L62.048 160.047L61.648 161.007C61.6307 161.04 61.604 161.067 61.5712 161.085C61.5385 161.103 61.5011 161.11 61.464 161.107Z" fill="white"/>
<path d="M63.672 162.987C63.6239 162.986 63.5781 162.967 63.5445 162.932C63.5108 162.898 63.492 162.852 63.492 162.803V158.743C63.492 158.696 63.511 158.65 63.5447 158.616C63.5785 158.582 63.6243 158.563 63.672 158.563C63.7197 158.563 63.7655 158.582 63.7993 158.616C63.833 158.65 63.852 158.696 63.852 158.743V162.799C63.8525 162.824 63.8483 162.848 63.8395 162.87C63.8308 162.893 63.8177 162.913 63.801 162.931C63.7842 162.948 63.7642 162.962 63.7421 162.972C63.72 162.982 63.6962 162.987 63.672 162.987Z" fill="white"/>
<path d="M63.14 160.151C63.1162 160.155 63.0919 160.155 63.068 160.151C63.0461 160.142 63.0262 160.128 63.0097 160.111C62.9931 160.093 62.9802 160.073 62.9716 160.051C62.9631 160.028 62.9591 160.005 62.9598 159.981C62.9606 159.957 62.9661 159.933 62.976 159.911L63.62 158.399L64.34 159.227C64.3733 159.262 64.3919 159.308 64.3919 159.355C64.3919 159.403 64.3733 159.449 64.34 159.483C64.3233 159.5 64.3034 159.514 64.2814 159.523C64.2594 159.532 64.2358 159.537 64.212 159.537C64.1882 159.537 64.1647 159.532 64.1427 159.523C64.1207 159.514 64.1008 159.5 64.084 159.483L63.744 159.083L63.344 160.043C63.3275 160.082 63.2982 160.114 63.2611 160.133C63.224 160.153 63.1813 160.159 63.14 160.151Z" fill="white"/>
</g>
<g opacity="0.7">
<path d="M57.16 166.7C57.0917 166.701 57.0242 166.684 56.964 166.652C56.8917 166.605 56.8331 166.54 56.7944 166.464C56.7558 166.387 56.7383 166.301 56.744 166.216V165.716C56.7451 165.668 56.7649 165.622 56.7993 165.588C56.8337 165.554 56.8799 165.536 56.928 165.536C56.9758 165.536 57.0216 165.555 57.0553 165.588C57.0891 165.622 57.108 165.668 57.108 165.716V166.216C57.108 166.288 57.108 166.328 57.144 166.336C57.18 166.344 57.2 166.336 57.26 166.304C57.3726 166.2 57.4613 166.073 57.52 165.931C57.5787 165.789 57.606 165.637 57.6 165.484V163.404C57.6 163.356 57.619 163.31 57.6528 163.276C57.6865 163.243 57.7323 163.224 57.78 163.224C57.8278 163.224 57.8736 163.243 57.9073 163.276C57.9411 163.31 57.96 163.356 57.96 163.404V165.484C57.969 165.7 57.9269 165.915 57.8373 166.111C57.7476 166.308 57.6129 166.481 57.444 166.616C57.3585 166.668 57.2605 166.697 57.16 166.7Z" fill="white"/>
<path d="M55.252 165.024V164.712C55.2996 163.911 55.5337 163.132 55.9359 162.437C56.338 161.743 56.8969 161.152 57.568 160.712C58.224 160.336 58.848 160.28 59.328 160.56C59.584 160.736 59.7882 160.977 59.919 161.258C60.0499 161.54 60.1028 161.851 60.072 162.16V162.264L55.252 165.024ZM58.656 160.728C58.3357 160.743 58.0245 160.839 57.752 161.008C57.1769 161.386 56.69 161.884 56.3242 162.467C55.9584 163.05 55.7223 163.706 55.632 164.388L59.7 162.036C59.7174 161.804 59.6746 161.572 59.5758 161.362C59.4769 161.152 59.3255 160.97 59.136 160.836C58.9882 160.759 58.8227 160.721 58.656 160.728Z" fill="white"/>
</g>
<path opacity="0.7" d="M13.14 118.908L46.368 138.132L53.308 147.72L46 138.472L13.14 118.908Z" fill="white"/>
<path opacity="0.7" d="M82.812 130.684L53.308 147.72V170.812L53.86 148.184L82.812 130.684Z" fill="white"/>
<path d="M39.516 121.449C42.56 121.009 45.34 119.049 47.116 116.585C47.9442 115.433 48.5543 114.14 48.916 112.769C49.3001 111.486 49.3632 110.129 49.1 108.817C48.552 106.621 46.52 105.321 44.372 105.049C43.282 104.905 42.1737 105.013 41.132 105.365C40.0518 105.735 39.1147 106.435 38.452 107.365C38.0364 107.86 37.775 108.466 37.7 109.109C37.6936 109.36 37.7823 109.605 37.9483 109.794C38.1144 109.983 38.3457 110.102 38.596 110.129C39.2401 110.183 39.8837 110.019 40.424 109.665C41.0827 109.295 41.6629 108.801 42.132 108.209C43.1381 106.967 43.8909 105.54 44.348 104.009C44.6686 102.694 44.6686 101.323 44.348 100.009C44.1044 98.634 43.4761 97.3566 42.536 96.3245C41.4582 95.3444 40.0906 94.7421 38.64 94.6086C37.1962 94.4102 35.7262 94.5471 34.344 95.0085C33.7368 95.1926 33.1743 95.5004 32.692 95.9125C32.348 96.2325 31.956 96.7605 32.096 97.2805C32.236 97.8005 32.996 98.0325 33.512 97.9645C34.2756 97.8214 34.9752 97.4423 35.512 96.8805C36.1102 96.2916 36.6183 95.6177 37.02 94.8805C37.3184 94.3508 37.4741 93.7526 37.472 93.1445C37.42 90.6085 34.616 88.9685 32.42 88.5045C31.8272 88.3807 31.22 88.3403 30.616 88.3846C30.412 88.3846 30.536 88.7205 30.7 88.7085C31.8817 88.6548 33.0561 88.9201 34.1 89.4765C35.1299 89.9499 35.9949 90.7202 36.584 91.6885C36.8465 92.166 36.9761 92.7051 36.9592 93.2497C36.9423 93.7942 36.7796 94.3243 36.488 94.7846C36.0963 95.4667 35.6086 96.0891 35.04 96.6325C34.564 97.0645 33.84 97.5645 33.172 97.5165C33.0617 97.5163 32.9537 97.485 32.8603 97.4263C32.767 97.3676 32.692 97.2838 32.644 97.1846C32.6238 97.0532 32.6346 96.919 32.6756 96.7926C32.7166 96.6662 32.7866 96.5511 32.88 96.4565C33.2332 96.0762 33.67 95.7831 34.156 95.6005C35.356 95.1017 36.6554 94.8881 37.952 94.9765C39.2882 95.0007 40.5876 95.4181 41.688 96.1765C42.6465 96.9725 43.3273 98.0524 43.632 99.2605C44.0179 100.488 44.1379 101.783 43.984 103.061C43.7464 104.346 43.2526 105.57 42.532 106.661C41.792 107.885 40.864 109.061 39.472 109.541C39.128 109.665 38.408 109.845 38.272 109.345C38.136 108.845 38.528 108.229 38.78 107.841C39.3372 106.964 40.1496 106.278 41.108 105.877C42.0327 105.506 43.031 105.355 44.024 105.437C45.908 105.577 47.82 106.561 48.476 108.433C48.805 109.551 48.8408 110.736 48.58 111.873C48.3446 113.118 47.8968 114.315 47.256 115.409C45.8776 117.733 43.79 119.554 41.3 120.605C40.708 120.861 40.1 121.077 39.48 121.277C39.416 121.301 39.444 121.461 39.516 121.449Z" fill="#E0E0E0"/>
<path d="M26.8 86.7201C25.2 86.6041 22.996 87.8641 23.78 88.7841C24.564 89.7041 26.644 88.2161 26.644 88.2161C26.644 88.2161 26.448 90.0761 27.128 90.2881C27.808 90.5001 28.728 88.7241 28.048 87.5881C28.3759 87.7174 28.7312 87.7617 29.0809 87.717C29.4305 87.6722 29.7632 87.5399 30.048 87.3321C31.016 86.6201 29.992 85.9481 28.628 86.0681C28.628 86.0681 29.604 82.8681 27.632 83.4801C26.644 83.7801 26.296 84.9361 26.8 86.7201Z" fill="#F98A2F"/>
<path opacity="0.65" d="M26.8 86.7201C25.2 86.6041 22.996 87.8641 23.78 88.7841C24.564 89.7041 26.644 88.2161 26.644 88.2161C26.644 88.2161 26.448 90.0761 27.128 90.2881C27.808 90.5001 28.728 88.7241 28.048 87.5881C28.3759 87.7174 28.7312 87.7617 29.0809 87.717C29.4305 87.6722 29.7632 87.5399 30.048 87.3321C31.016 86.6201 29.992 85.9481 28.628 86.0681C28.628 86.0681 29.604 82.8681 27.632 83.4801C26.644 83.7801 26.296 84.9361 26.8 86.7201Z" fill="white"/>
<path d="M28.288 87.4004C28.1995 87.3137 28.106 87.2323 28.008 87.1564C27.868 87.0484 27.72 86.9444 27.58 86.8404C27.4437 86.7413 27.3007 86.6518 27.152 86.5724C27.0664 86.5249 26.9783 86.4822 26.888 86.4444C26.7633 86.3859 26.6247 86.3637 26.488 86.3804C26.4522 86.3814 26.4173 86.392 26.387 86.4112C26.3567 86.4303 26.332 86.4572 26.3157 86.4891C26.2993 86.521 26.2918 86.5567 26.294 86.5924C26.2962 86.6282 26.3079 86.6627 26.328 86.6924C26.438 86.8115 26.5752 86.9021 26.728 86.9564L26.944 87.0724C27.092 87.1604 27.224 87.2604 27.344 87.3604C27.464 87.4604 27.624 87.5564 27.744 87.6564C27.9503 87.8238 28.181 87.9586 28.428 88.0564C28.4391 88.0624 28.4514 88.0655 28.464 88.0655C28.4766 88.0655 28.4889 88.0624 28.5 88.0564C28.704 87.8964 28.404 87.5164 28.288 87.4004Z" fill="#455A64"/>
<path d="M155.812 42.7161C154.064 45.0681 151.724 58.0001 150.84 62.1481C146.588 62.0241 140.9 61.8241 138.748 61.6001C136.348 61.3481 131.224 60.8561 128.708 61.2001C122.464 62.0001 122.708 66.1041 122.86 67.1761C123.024 68.4001 123.9 68.9601 127.26 68.1961C128.012 68.0308 128.778 67.9411 129.548 67.9281C129.872 67.9281 130.556 67.7641 130.812 68.0401C131.212 68.4401 130.056 69.1121 129.768 69.2961C129.324 69.5841 128.86 69.9481 128.768 70.4681C128.742 70.5631 128.743 70.6638 128.772 70.7581C128.801 70.8524 128.857 70.9364 128.932 71.0001C129.095 71.0665 129.277 71.0665 129.44 71.0001C130.974 70.6361 132.453 70.0726 133.84 69.3241C134.363 69.0088 134.913 68.741 135.484 68.5241C136.352 68.2441 137.248 68.4081 138.12 68.4081C139.996 68.4081 149.912 69.3921 154.32 69.8401C157.372 70.1481 157.696 67.1361 158.748 64.0841C160.04 60.3001 163.1 40.4001 163.1 40.4001C160.012 39.9521 157.892 39.9241 155.812 42.7161Z" fill="#FFA8A7"/>
<path d="M163.148 40.088C161.672 39.816 158.348 39.404 156.54 41.424C154.732 43.444 154.304 45.564 153.508 48.624C152.712 51.684 151.3 57.164 151.3 57.164C151.3 57.164 153.632 60.512 160.932 59.564L163.148 40.088Z" fill="#37474F"/>
<path d="M181.48 145.856L176.348 145.86L174.872 134.72L181.348 134.464L181.48 145.856Z" fill="#FFA8A7"/>
<path d="M164.44 140.292C163.568 141.808 160.764 141.684 158.44 141.148L158.172 130.196L165.032 129.924L164.44 140.292Z" fill="#FFA8A7"/>
<path d="M181.132 75.4636C181.316 80.2036 180.688 108.232 180.688 108.232C180.86 109.592 182.268 111.964 182.56 116.872C182.988 124 181.536 139.2 181.536 139.2C181.536 139.2 178.596 140.736 175.428 139.56C175.428 139.56 172.204 117.56 171.028 110.528C170.012 104.408 168.708 87.9916 168.708 87.9916L166.176 109.032C166.64 111.522 166.832 114.056 166.748 116.588C166.644 119.86 164.78 135.748 164.78 135.748C162.653 136.443 160.369 136.497 158.212 135.904C158.212 135.904 156.684 111.248 156.508 108.26C156.308 104.852 156.444 74.7676 156.444 74.7676L181.132 75.4636Z" fill="#F98A2F"/>
<path opacity="0.2" d="M168.716 88C168.716 88 164.232 86.728 161.176 84C161.176 84 162.608 86.444 166.664 88.612L166.432 106.976L168.716 88Z" fill="black"/>
<path d="M170.5 155.148C170.336 155.316 170.432 156.424 170.632 156.712C170.832 157 172.056 157.976 174.18 158.048C176.208 158.112 178 157.768 179.156 156.968C180.312 156.168 180.856 155.316 180.924 154.168C180.992 153.02 180.82 151.904 181.324 150.996C181.8 150.16 182.572 149.204 182.728 148.752C183.076 147.772 182.652 146.408 182.652 146.408L170.5 155.148Z" fill="#263238"/>
<path d="M175.62 144.88C175.623 145.318 175.561 145.753 175.436 146.172C175.002 147.536 174.349 148.821 173.504 149.976C172.92 150.724 172.184 151.352 171.564 152.076C170.901 152.763 170.494 153.657 170.412 154.608C170.388 156.208 172.132 156.668 173.464 156.852C174.908 157.043 176.376 156.906 177.76 156.452C178.489 156.233 179.139 155.807 179.631 155.226C180.124 154.646 180.438 153.935 180.536 153.18C180.592 152.736 180.536 152.288 180.584 151.844C180.72 150.825 181.106 149.854 181.708 149.02C182.057 148.538 182.354 148.02 182.596 147.476C182.968 146.476 182.596 145.384 182.292 144.42C182.032 143.584 181.736 142.636 181.444 142.728C181.444 143.172 181.444 143.212 181.16 143.528C180.76 143.928 180.78 144.484 180.36 144.832C180.481 144.463 180.565 144.082 180.608 143.696C180.628 143.539 180.589 143.38 180.5 143.248C180.356 143.131 180.186 143.049 180.004 143.008C179.371 142.821 178.721 142.699 178.064 142.644C177.438 142.562 176.803 142.582 176.184 142.704C176.001 142.747 175.837 142.85 175.72 142.996C175.617 143.16 175.566 143.351 175.572 143.544C175.572 143.804 175.616 144.456 175.62 144.88Z" fill="#455A64"/>
<path d="M174.1 149.092C174.676 148.628 175.996 148.568 176.724 148.62C177.462 148.653 178.179 148.873 178.808 149.26C178.901 149.322 179.013 149.349 179.123 149.335C179.234 149.322 179.336 149.27 179.412 149.188C179.456 149.141 179.49 149.085 179.51 149.025C179.531 148.964 179.538 148.899 179.531 148.835C179.524 148.771 179.504 148.71 179.471 148.655C179.438 148.599 179.393 148.552 179.34 148.516C178.645 148.045 177.831 147.779 176.992 147.748C175.208 147.696 174.7 148.02 174.7 148.02C174.7 148.02 173.904 148.572 174.1 149.092Z" fill="#F5F5F5"/>
<path d="M172.804 150.772C173.528 150.304 174.988 150.308 175.712 150.372C176.438 150.418 177.138 150.654 177.744 151.056C177.836 151.118 177.947 151.145 178.057 151.131C178.167 151.118 178.269 151.066 178.344 150.984C178.389 150.938 178.423 150.883 178.445 150.822C178.466 150.761 178.474 150.696 178.467 150.632C178.461 150.568 178.44 150.506 178.407 150.451C178.374 150.396 178.329 150.348 178.276 150.312C177.569 149.816 176.738 149.528 175.876 149.48C174.088 149.424 173.64 149.804 173.64 149.804C173.437 149.892 173.256 150.025 173.111 150.193C172.967 150.36 172.862 150.558 172.804 150.772Z" fill="#F5F5F5"/>
<path d="M177.632 146.02C176.877 145.917 176.108 146.011 175.4 146.292C175.096 146.48 174.908 146.984 175.112 147.092C175.732 146.814 176.41 146.693 177.088 146.74C177.757 146.779 178.415 146.934 179.032 147.196C179.188 147.256 179.372 147.344 179.532 147.424C179.583 147.45 179.639 147.466 179.697 147.47C179.754 147.474 179.812 147.466 179.866 147.447C179.92 147.428 179.97 147.398 180.012 147.359C180.055 147.32 180.089 147.273 180.112 147.22C180.15 147.129 180.153 147.027 180.12 146.934C180.088 146.841 180.022 146.764 179.936 146.716C179.227 146.321 178.441 146.084 177.632 146.02Z" fill="#F5F5F5"/>
<path d="M146.712 147.124C146.53 147.581 146.53 148.09 146.712 148.548C146.888 148.976 149.008 150.304 151.952 150.248C154.141 150.194 156.277 149.556 158.136 148.4C159.292 147.712 160.464 147.628 161.92 147.6C163.376 147.572 165.32 146.952 165.672 146.288C166.024 145.624 165.712 144.436 165.712 144.436L146.712 147.124Z" fill="#263238"/>
<path d="M158.992 138.523L158.764 138.463C158.635 138.424 158.498 138.412 158.364 138.427C158.22 138.462 158.09 138.54 157.992 138.651C157.689 139.006 157.421 139.389 157.192 139.795C156.532 140.767 155.192 141.539 153.752 142.231C152.768 142.699 151.812 143.055 150.8 143.451C149.788 143.847 148.4 144.071 147.6 144.567C146.4 145.291 146.172 147.231 147.444 148.063C148.548 148.783 151.492 149.643 154.644 148.907C156.368 148.507 158.344 146.779 160.584 146.711C162.012 146.667 164.716 146.395 165.68 145.359C166.044 144.899 165.68 143.359 165.356 142.031C165.02 140.583 165.172 138.431 164.524 138.431L164.484 139.155C164.424 139.371 163.916 139.583 163.756 139.751L163.18 140.359C162.944 140.641 162.656 140.875 162.332 141.047C161.76 141.303 161.092 141.151 160.48 140.991C160.456 140.991 160.788 139.879 160.824 139.771C160.86 139.687 160.871 139.594 160.856 139.503C160.825 139.415 160.764 139.34 160.684 139.291C160.179 138.921 159.603 138.66 158.992 138.523Z" fill="#455A64"/>
<path d="M155.12 141.52C155.232 141.33 155.39 141.17 155.579 141.056C155.768 140.942 155.983 140.878 156.204 140.868C156.856 140.78 157.972 141.308 158.656 141.928C158.721 141.986 158.77 142.059 158.8 142.141C158.829 142.222 158.839 142.31 158.827 142.396C158.815 142.482 158.782 142.564 158.732 142.634C158.681 142.705 158.614 142.761 158.536 142.8C158.438 142.848 158.328 142.865 158.221 142.848C158.113 142.831 158.014 142.78 157.936 142.704C157.187 141.958 156.177 141.533 155.12 141.52Z" fill="#F5F5F5"/>
<path d="M153.064 142.548C153.214 142.356 153.408 142.203 153.629 142.102C153.851 142.001 154.093 141.955 154.336 141.968C154.336 141.968 156.024 142.096 157.02 143.12C157.082 143.176 157.129 143.246 157.157 143.324C157.185 143.403 157.195 143.487 157.184 143.569C157.173 143.652 157.142 143.73 157.094 143.798C157.046 143.866 156.982 143.922 156.908 143.96C156.814 144.006 156.707 144.022 156.604 144.005C156.5 143.989 156.404 143.941 156.328 143.868C155.918 143.417 155.412 143.064 154.847 142.835C154.282 142.607 153.672 142.508 153.064 142.548Z" fill="#F5F5F5"/>
<path d="M150.804 143.451C150.974 143.276 151.18 143.138 151.408 143.049C151.635 142.96 151.88 142.921 152.124 142.935C153.08 143.041 153.979 143.445 154.692 144.091C154.753 144.148 154.8 144.218 154.829 144.297C154.857 144.376 154.866 144.46 154.855 144.543C154.844 144.625 154.814 144.704 154.766 144.773C154.718 144.841 154.654 144.897 154.58 144.935C154.485 144.982 154.379 144.998 154.275 144.981C154.171 144.964 154.074 144.914 154 144.839C153.612 144.376 153.121 144.009 152.566 143.768C152.011 143.527 151.408 143.419 150.804 143.451Z" fill="#F5F5F5"/>
<path d="M171.7 40.1758C173.588 40.3918 175.82 40.5078 177.624 40.7438C179.948 41.0478 181.76 43.4518 182.328 47.1718C182.952 51.2678 180.328 63.0118 180.328 63.0118L181.164 76.8598C177.76 79.3678 163.264 80.6838 156.04 75.4678C156.04 75.4678 156.208 51.8998 156.772 48.2678C157.548 43.2878 158.772 40.1958 164.372 39.8398L171.7 40.1758Z" fill="#455A64"/>
<path d="M184.608 70.1759C183.996 71.1999 183.38 72.2239 182.748 73.2359C182.516 73.6119 182.28 73.9839 182.036 74.3519C181.904 74.532 181.749 74.6946 181.576 74.8359C181.272 75.0439 180.64 74.9119 180.272 74.9239C178.464 74.9852 176.661 75.1185 174.864 75.3239C174.714 75.3192 174.564 75.3475 174.426 75.407C174.288 75.4664 174.164 75.5555 174.064 75.6679C173.99 75.8228 173.975 75.9993 174.023 76.1643C174.07 76.3293 174.175 76.4714 174.32 76.5639C174.614 76.7406 174.949 76.8397 175.292 76.8519L176.852 77.0359C177.075 77.0433 177.291 77.1126 177.476 77.2359C178.044 77.6959 176.96 78.2479 176.636 78.4719C175.984 78.9245 175.289 79.3105 174.56 79.6239C171.308 80.9919 170.912 81.9839 171.512 83.1119C172.032 84.0919 174.28 87.6559 179.992 84.5879C182.292 83.3519 185.792 79.4479 187.388 77.5599C189.684 74.8359 193.568 68.7599 193.568 68.7599C195.776 65.7279 196.06 64.4839 196.112 63.2239C196.164 61.9639 189.312 52.2719 186.984 48.8679C184.656 45.4639 183.548 41.3239 177.624 40.7559C177.624 40.7559 175.368 47.9079 179.104 52.5359L187.732 64.5719C187.732 64.5719 185.448 68.7719 184.608 70.1759Z" fill="#FFA8A7"/>
<path d="M190.868 53.4836C189.76 51.8836 188.604 50.2356 187.488 48.6036C182.788 41.7436 183.184 40.4876 176.408 40.3916C175.808 41.3116 175.452 45.2716 176.356 49.2476C177.112 52.5876 179.956 54.9436 179.956 54.9436L183.348 59.5396C183.348 59.5396 185.424 59.4756 187.912 57.6516C189.349 56.6451 190.393 55.1725 190.868 53.4836Z" fill="#37474F"/>
<path d="M176.168 22.1479C175.827 21.6403 175.355 21.2346 174.803 20.974C174.25 20.7133 173.636 20.6076 173.028 20.6679L172.676 29.2559L172.1 32.4279L172.2 35.9599C172.534 35.9126 172.851 35.7814 173.121 35.5786C173.391 35.3757 173.606 35.1078 173.744 34.7999C174.272 33.7839 175.744 28.8719 175.744 28.8719C177.064 24.8359 176.784 23.0119 176.168 22.1479Z" fill="#263238"/>
<path d="M172.276 29.2961C172.424 28.7741 172.71 28.3016 173.104 27.9281C173.596 27.4001 175.556 26.8281 176.448 28.4921C177.34 30.1561 175.836 32.3521 174.676 33.0241C173.192 33.8881 172.32 32.7121 172.32 32.7121L172.356 40.6201C171.664 42.2201 168.54 43.6441 166.68 43.4201C165.2 43.2321 163.836 42.0681 165.16 40.3721L165.052 38.1161C165.052 38.1161 163.072 38.5161 162.092 38.4161C160.464 38.2481 159.38 37.0201 158.804 35.2921C157.876 32.5161 157.464 30.2601 157.856 24.6921C158.288 18.5921 165.34 18.1801 169.272 20.3881C173.204 22.5961 172.276 29.2961 172.276 29.2961Z" fill="#FFA8A7"/>
<path d="M155.612 18.3558C155.432 17.0238 155.892 15.5958 157.288 15.1238C157.8 14.9095 158.363 14.8442 158.91 14.9355C159.458 15.0268 159.969 15.271 160.384 15.6398C160.559 15.1699 160.862 14.7581 161.258 14.4507C161.654 14.1433 162.128 13.9525 162.627 13.8997C163.125 13.847 163.629 13.9343 164.081 14.152C164.532 14.3696 164.915 14.7089 165.184 15.1318C165.555 14.5686 166.127 14.1691 166.784 14.0158C167.189 13.9254 167.608 13.9171 168.016 13.9913C168.424 14.0655 168.813 14.2207 169.16 14.4478C169.728 14.8678 170.396 15.6478 170.228 16.6598C171.352 16.2078 172.524 16.5838 173.36 17.5758C173.858 18.1833 174.139 18.9389 174.16 19.7238C174.189 20.1315 174.13 20.5407 173.988 20.9238C173.828 21.2878 173.5 21.5278 173.404 21.9398C173.264 22.3023 173.193 22.6874 173.192 23.0758C173.284 23.7478 173.432 24.4198 173.52 25.0758C173.615 25.7292 173.669 26.3878 173.684 27.0478C173.663 27.2031 173.609 27.352 173.526 27.4845C173.442 27.617 173.331 27.73 173.2 27.8158C172.827 28.1424 172.537 28.554 172.356 29.0158C172.216 29.3038 172.08 30.0158 171.804 30.2158C170.952 30.8118 170.856 28.8838 170.816 28.5118C170.761 27.658 170.761 26.8016 170.816 25.9478C170.386 25.9423 169.963 25.8469 169.572 25.6678C169.181 25.4886 168.833 25.2298 168.548 24.9078C168.253 24.546 168.058 24.1128 167.984 23.6518C167.938 23.3877 167.916 23.1199 167.92 22.8518C167.364 23.7718 166.072 24.1478 165.152 24.0518C163.608 23.9118 163.076 23.2518 162.828 22.7678C162.73 23.2449 162.521 23.6919 162.216 24.0718C161.822 24.4424 161.346 24.7163 160.828 24.8718C160.381 24.9911 159.91 24.9864 159.465 24.8581C159.02 24.7299 158.619 24.4829 158.304 24.1438C157.676 25.0438 156.084 24.6438 155.732 24.3918C154.932 23.8118 154.672 23.1198 154.584 22.1318C154.496 21.1438 154.896 20.0158 155.992 19.6278C155.794 19.2283 155.666 18.7982 155.612 18.3558Z" fill="#263238"/>
<path d="M165.052 38.1035C165.052 38.1035 168.628 37.1995 169.852 36.4635C170.576 36.0395 171.155 35.4065 171.512 34.6475C171.357 35.3962 171.054 36.1062 170.62 36.7355C169.756 37.9635 165.092 39.0675 165.092 39.0675L165.052 38.1035Z" fill="#F28F8F"/>
<path d="M165.252 29.0314C165.266 29.1829 165.323 29.3271 165.418 29.4461C165.513 29.5651 165.641 29.6535 165.785 29.7006C165.93 29.7476 166.085 29.751 166.232 29.7105C166.378 29.6699 166.51 29.5872 166.61 29.4725C166.71 29.3579 166.774 29.2164 166.794 29.0656C166.814 28.9149 166.79 28.7615 166.723 28.6245C166.657 28.4876 166.552 28.3732 166.421 28.2955C166.291 28.2177 166.14 28.1802 165.988 28.1874C165.779 28.2038 165.585 28.3014 165.448 28.4592C165.31 28.6169 165.24 28.8224 165.252 29.0314Z" fill="#263238"/>
<path d="M164.056 34.8199C164.074 35.015 164.15 35.2005 164.272 35.3532C164.395 35.506 164.56 35.6193 164.747 35.679C164.934 35.7387 165.134 35.7423 165.322 35.6892C165.511 35.6362 165.68 35.5288 165.808 35.3805C165.936 35.2323 166.018 35.0496 166.043 34.8552C166.069 34.6608 166.036 34.4633 165.95 34.2873C165.864 34.1112 165.728 33.9643 165.559 33.8649C165.39 33.7654 165.196 33.7178 165 33.7279C164.731 33.7494 164.481 33.876 164.304 34.0803C164.127 34.2847 164.038 34.5504 164.056 34.8199Z" fill="#F28F8F"/>
<path d="M165.896 26.368L167.544 27.168C167.647 26.9421 167.659 26.6854 167.578 26.4509C167.496 26.2164 167.328 26.0221 167.108 25.908C166.999 25.8557 166.88 25.8261 166.759 25.8211C166.638 25.816 166.517 25.8356 166.404 25.8786C166.29 25.9216 166.187 25.9872 166.1 26.0713C166.012 26.1554 165.943 26.2563 165.896 26.368Z" fill="#263238"/>
<path d="M158.728 27.0597L160.132 25.8597C160.059 25.7639 159.967 25.6842 159.862 25.6253C159.757 25.5665 159.64 25.5297 159.521 25.5174C159.401 25.505 159.28 25.5173 159.165 25.5534C159.05 25.5896 158.943 25.6489 158.852 25.7277C158.665 25.8916 158.548 26.1211 158.524 26.369C158.501 26.6168 158.574 26.864 158.728 27.0597Z" fill="#263238"/>
<path d="M159.148 28.8762C159.158 29.0241 159.211 29.1659 159.301 29.2838C159.391 29.4016 159.514 29.4902 159.654 29.5384C159.794 29.5866 159.946 29.5922 160.089 29.5546C160.232 29.5171 160.362 29.4379 160.46 29.3271C160.559 29.2164 160.622 29.0789 160.643 28.9321C160.664 28.7853 160.641 28.6356 160.576 28.5019C160.512 28.3682 160.41 28.2565 160.283 28.1807C160.155 28.105 160.008 28.0686 159.86 28.0762C159.66 28.0896 159.474 28.1809 159.34 28.3305C159.207 28.4802 159.138 28.6761 159.148 28.8762Z" fill="#263238"/>
<path d="M162.86 27.9883L162.836 32.7203L160.332 32.0003L162.86 27.9883Z" fill="#F28F8F"/>
<path d="M156.576 34.608C156.599 34.6028 156.621 34.5931 156.64 34.5794C156.659 34.5656 156.676 34.5481 156.688 34.528C156.702 34.5082 156.712 34.4858 156.718 34.462C156.723 34.4382 156.723 34.4136 156.719 34.3897C156.714 34.3658 156.705 34.343 156.692 34.3228C156.678 34.3025 156.66 34.2852 156.64 34.272L154.464 32.824C154.444 32.8105 154.421 32.8011 154.397 32.7964C154.374 32.7917 154.349 32.7918 154.325 32.7967C154.301 32.8015 154.279 32.811 154.259 32.8246C154.239 32.8382 154.221 32.8557 154.208 32.876C154.194 32.896 154.184 32.9186 154.179 32.9426C154.174 32.9665 154.174 32.9912 154.179 33.0151C154.184 33.0391 154.194 33.0618 154.208 33.0819C154.221 33.102 154.239 33.119 154.26 33.132L156.432 34.58C156.452 34.595 156.476 34.6052 156.501 34.6101C156.526 34.6149 156.551 34.6142 156.576 34.608Z" fill="#E0E0E0"/>
<path d="M156.344 35.5435C156.378 35.5351 156.409 35.5176 156.433 35.493C156.458 35.4683 156.476 35.4374 156.484 35.4035C156.495 35.3553 156.486 35.3047 156.46 35.2628C156.434 35.2209 156.392 35.1909 156.344 35.1795L153.8 34.5915C153.776 34.5856 153.752 34.5844 153.728 34.588C153.704 34.5916 153.68 34.6 153.66 34.6127C153.639 34.6253 153.621 34.642 153.606 34.6617C153.592 34.6814 153.582 34.7038 153.576 34.7275C153.565 34.7758 153.574 34.8263 153.6 34.8682C153.626 34.9102 153.668 34.9401 153.716 34.9515L156.26 35.5435C156.288 35.5475 156.316 35.5475 156.344 35.5435Z" fill="#E0E0E0"/>
<path d="M153.98 37.2359H154.004L156.456 36.3399C156.502 36.3229 156.54 36.2883 156.56 36.2436C156.581 36.199 156.583 36.148 156.566 36.1019C156.549 36.0557 156.514 36.0182 156.47 35.9976C156.425 35.9769 156.374 35.9749 156.328 35.9919L153.876 36.8879C153.853 36.8963 153.832 36.9092 153.814 36.9259C153.796 36.9427 153.782 36.9628 153.772 36.9851C153.761 37.0075 153.756 37.0316 153.755 37.0561C153.755 37.0807 153.759 37.105 153.768 37.1279C153.785 37.1681 153.815 37.201 153.854 37.2207C153.893 37.2405 153.938 37.2459 153.98 37.2359Z" fill="#E0E0E0"/>
<path d="M133.236 56.4237C133.287 56.5252 133.366 56.6096 133.464 56.6666C133.562 56.7235 133.675 56.7504 133.788 56.7441C133.901 56.7377 134.01 56.6982 134.101 56.6306C134.192 56.563 134.261 56.4702 134.3 56.3637L136.124 51.8637C136.154 51.7916 136.168 51.7142 136.167 51.6362C136.166 51.5582 136.15 51.4813 136.118 51.4099C136.087 51.3385 136.041 51.2742 135.985 51.2208C135.928 51.1674 135.861 51.126 135.788 51.0991C135.714 51.0722 135.637 51.0603 135.559 51.0642C135.481 51.0681 135.404 51.0876 135.334 51.1216C135.264 51.1557 135.202 51.2035 135.15 51.2623C135.099 51.3211 135.06 51.3896 135.036 51.4637L133.208 55.9637C133.181 56.0382 133.17 56.1175 133.174 56.1966C133.179 56.2757 133.2 56.353 133.236 56.4237Z" fill="#E0E0E0"/>
<path d="M130.232 56.3998C130.29 56.5177 130.387 56.6123 130.506 56.6681C130.625 56.724 130.76 56.7376 130.887 56.707C131.015 56.6763 131.129 56.603 131.21 56.4992C131.291 56.3954 131.334 56.2673 131.332 56.1358L131.272 50.5358C131.26 50.3908 131.194 50.2556 131.087 50.1571C130.98 50.0586 130.84 50.0039 130.694 50.0039C130.549 50.0039 130.408 50.0586 130.301 50.1571C130.194 50.2556 130.128 50.3908 130.116 50.5358L130.172 56.1358C130.171 56.2273 130.191 56.3177 130.232 56.3998Z" fill="#E0E0E0"/>
<path d="M125.14 53.2833L125.176 53.3513L127.932 57.3513C128.017 57.478 128.149 57.5658 128.299 57.5958C128.449 57.6257 128.604 57.5954 128.732 57.5113C128.856 57.424 128.942 57.2919 128.971 57.1427C129 56.9936 128.97 56.839 128.888 56.7113L126.132 52.7113C126.052 52.5873 125.927 52.4988 125.783 52.4642C125.639 52.4297 125.488 52.4516 125.36 52.5256C125.232 52.5996 125.138 52.7199 125.096 52.8617C125.054 53.0035 125.069 53.1559 125.136 53.2873L125.14 53.2833Z" fill="#E0E0E0"/>
</svg>
